<svg width="303" height="352" viewBox="0 0 303 352" fill="none" xmlns="http://www.w3.org/2000/svg">
<path d="M24.8278 22H28.1878C29.2811 22 30.1011 22.2933 30.6478 22.88C31.1945 23.4667 31.4678 24.3267 31.4678 25.46V32.54C31.4678 33.6733 31.1945 34.5333 30.6478 35.12C30.1011 35.7067 29.2811 36 28.1878 36H24.8278V22ZM28.1478 34C28.5078 34 28.7811 33.8933 28.9678 33.68C29.1678 33.4667 29.2678 33.12 29.2678 32.64V25.36C29.2678 24.88 29.1678 24.5333 28.9678 24.32C28.7811 24.1067 28.5078 24 28.1478 24H27.0278V34H28.1478ZM32.9528 22H35.1528V36H32.9528V22ZM39.6605 36.2C38.5938 36.2 37.7871 35.9 37.2405 35.3C36.6938 34.6867 36.4205 33.8133 36.4205 32.68V31.88H38.5005V32.84C38.5005 33.7467 38.8805 34.2 39.6405 34.2C40.0138 34.2 40.2938 34.0933 40.4805 33.88C40.6805 33.6533 40.7805 33.2933 40.7805 32.8C40.7805 32.2133 40.6471 31.7 40.3805 31.26C40.1138 30.8067 39.6205 30.2667 38.9005 29.64C37.9938 28.84 37.3605 28.12 37.0005 27.48C36.6405 26.8267 36.4605 26.0933 36.4605 25.28C36.4605 24.1733 36.7405 23.32 37.3005 22.72C37.8605 22.1067 38.6738 21.8 39.7405 21.8C40.7938 21.8 41.5871 22.1067 42.1205 22.72C42.6671 23.32 42.9405 24.1867 42.9405 25.32V25.9H40.8605V25.18C40.8605 24.7 40.7671 24.3533 40.5805 24.14C40.3938 23.9133 40.1205 23.8 39.7605 23.8C39.0271 23.8 38.6605 24.2467 38.6605 25.14C38.6605 25.6467 38.7938 26.12 39.0605 26.56C39.3405 27 39.8405 27.5333 40.5605 28.16C41.4805 28.96 42.1138 29.6867 42.4605 30.34C42.8071 30.9933 42.9805 31.76 42.9805 32.64C42.9805 33.7867 42.6938 34.6667 42.1205 35.28C41.5605 35.8933 40.7405 36.2 39.6605 36.2ZM45.9619 24H43.6619V22H50.4619V24H48.1619V36H45.9619V24ZM51.527 22H54.787C55.9204 22 56.747 22.2667 57.267 22.8C57.787 23.32 58.047 24.1267 58.047 25.22V26.08C58.047 27.5333 57.567 28.4533 56.607 28.84V28.88C57.1404 29.04 57.5137 29.3667 57.727 29.86C57.9537 30.3533 58.067 31.0133 58.067 31.84V34.3C58.067 34.7 58.0804 35.0267 58.107 35.28C58.1337 35.52 58.2004 35.76 58.307 36H56.067C55.987 35.7733 55.9337 35.56 55.907 35.36C55.8804 35.16 55.867 34.8 55.867 34.28V31.72C55.867 31.08 55.7604 30.6333 55.547 30.38C55.347 30.1267 54.9937 30 54.487 30H53.727V36H51.527V22ZM54.527 28C54.967 28 55.2937 27.8867 55.507 27.66C55.7337 27.4333 55.847 27.0533 55.847 26.52V25.44C55.847 24.9333 55.7537 24.5667 55.567 24.34C55.3937 24.1133 55.1137 24 54.727 24H53.727V28H54.527ZM59.5934 22H61.7934V36H59.5934V22ZM63.4411 22H66.7611C67.8944 22 68.7211 22.2667 69.2411 22.8C69.7611 23.32 70.0211 24.1267 70.0211 25.22V25.78C70.0211 26.5 69.9011 27.0867 69.6611 27.54C69.4344 27.9933 69.0811 28.32 68.6011 28.52V28.56C69.6944 28.9333 70.2411 29.9067 70.2411 31.48V32.68C70.2411 33.76 69.9544 34.5867 69.3811 35.16C68.8211 35.72 67.9944 36 66.9011 36H63.4411V22ZM66.5011 27.7C66.9411 27.7 67.2678 27.5867 67.4811 27.36C67.7078 27.1333 67.8211 26.7533 67.8211 26.22V25.44C67.8211 24.9333 67.7278 24.5667 67.5411 24.34C67.3678 24.1133 67.0878 24 66.7011 24H65.6411V27.7H66.5011ZM66.9011 34C67.2878 34 67.5744 33.9 67.7611 33.7C67.9478 33.4867 68.0411 33.1267 68.0411 32.62V31.4C68.0411 30.76 67.9278 30.32 67.7011 30.08C67.4878 29.8267 67.1278 29.7 66.6211 29.7H65.6411V34H66.9011ZM74.727 36.2C73.6604 36.2 72.847 35.9 72.287 35.3C71.727 34.6867 71.447 33.8133 71.447 32.68V22H73.647V32.84C73.647 33.32 73.7404 33.6667 73.927 33.88C74.127 34.0933 74.407 34.2 74.767 34.2C75.127 34.2 75.4004 34.0933 75.587 33.88C75.787 33.6667 75.887 33.32 75.887 32.84V22H78.007V32.68C78.007 33.8133 77.727 34.6867 77.167 35.3C76.607 35.9 75.7937 36.2 74.727 36.2ZM79.5739 22H81.7739V36H79.5739V22ZM87.6816 26.72V25.1C87.6816 24.2333 87.3149 23.8 86.5816 23.8C85.8482 23.8 85.4816 24.2333 85.4816 25.1V32.92C85.4816 33.7733 85.8482 34.2 86.5816 34.2C87.3149 34.2 87.6816 33.7733 87.6816 32.92V30.78H89.7616V32.76C89.7616 33.76 89.5282 34.56 89.0616 35.16C88.5949 35.7467 87.9216 36.0867 87.0416 36.18V36.78C87.4949 36.78 87.8349 36.8533 88.0616 37C88.3016 37.1467 88.4216 37.3867 88.4216 37.72C88.4216 38.2133 88.2549 38.54 87.9216 38.7C87.5882 38.86 87.0749 38.94 86.3816 38.94C85.7682 38.94 85.2949 38.8533 84.9616 38.68C84.6282 38.5067 84.4616 38.2067 84.4616 37.78V37.58H85.9416V37.74C85.9416 37.8733 85.9816 37.9733 86.0616 38.04C86.1549 38.1067 86.2616 38.14 86.3816 38.14C86.5682 38.14 86.7016 38.1 86.7816 38.02C86.8616 37.9533 86.9016 37.8333 86.9016 37.66C86.9016 37.4733 86.8416 37.34 86.7216 37.26C86.6016 37.18 86.4149 37.14 86.1616 37.14H86.0616V36.18C85.1549 36.0867 84.4616 35.7467 83.9816 35.16C83.5149 34.5733 83.2816 33.7733 83.2816 32.76V25.24C83.2816 24.1467 83.5549 23.3 84.1016 22.7C84.6616 22.1 85.4682 21.8 86.5216 21.8C87.5749 21.8 88.3749 22.1 88.9216 22.7C89.4816 23.3 89.7616 24.1467 89.7616 25.24V26.72H87.6816ZM92.7778 22H95.7578L98.0378 36H95.8378L95.4378 33.22V33.26H92.9378L92.5378 36H90.4978L92.7778 22ZM95.1778 31.36L94.1978 24.44H94.1578L93.1978 31.36H95.1778ZM91.4978 20.5C91.7511 19.9267 92.0245 19.5067 92.3178 19.24C92.6111 18.96 92.9445 18.82 93.3178 18.82C93.5578 18.82 93.7645 18.8533 93.9378 18.92C94.1245 18.9867 94.3178 19.08 94.5178 19.2C94.6378 19.2667 94.7511 19.3267 94.8578 19.38C94.9778 19.4333 95.0911 19.46 95.1978 19.46C95.3578 19.46 95.4978 19.4 95.6178 19.28C95.7378 19.16 95.8645 18.96 95.9978 18.68L97.0578 19.32C96.8045 19.8933 96.5311 20.32 96.2378 20.6C95.9445 20.8667 95.6111 21 95.2378 21C94.9978 21 94.7845 20.9667 94.5978 20.9C94.4245 20.8333 94.2378 20.74 94.0378 20.62C93.9178 20.5533 93.7978 20.4933 93.6778 20.44C93.5711 20.3867 93.4645 20.36 93.3578 20.36C93.1978 20.36 93.0578 20.42 92.9378 20.54C92.8178 20.66 92.6911 20.86 92.5578 21.14L91.4978 20.5ZM102.246 36.2C101.166 36.2 100.339 35.8933 99.7661 35.28C99.1928 34.6667 98.9061 33.8 98.9061 32.68V25.32C98.9061 24.2 99.1928 23.3333 99.7661 22.72C100.339 22.1067 101.166 21.8 102.246 21.8C103.326 21.8 104.153 22.1067 104.726 22.72C105.299 23.3333 105.586 24.2 105.586 25.32V32.68C105.586 33.8 105.299 34.6667 104.726 35.28C104.153 35.8933 103.326 36.2 102.246 36.2ZM102.246 34.2C103.006 34.2 103.386 33.74 103.386 32.82V25.18C103.386 24.26 103.006 23.8 102.246 23.8C101.486 23.8 101.106 24.26 101.106 25.18V32.82C101.106 33.74 101.486 34.2 102.246 34.2ZM110.277 22H113.637C114.73 22 115.55 22.2933 116.097 22.88C116.644 23.4667 116.917 24.3267 116.917 25.46V32.54C116.917 33.6733 116.644 34.5333 116.097 35.12C115.55 35.7067 114.73 36 113.637 36H110.277V22ZM113.597 34C113.957 34 114.23 33.8933 114.417 33.68C114.617 33.4667 114.717 33.12 114.717 32.64V25.36C114.717 24.88 114.617 24.5333 114.417 24.32C114.23 24.1067 113.957 24 113.597 24H112.477V34H113.597ZM121.582 36.2C120.502 36.2 119.675 35.8933 119.102 35.28C118.529 34.6667 118.242 33.8 118.242 32.68V25.32C118.242 24.2 118.529 23.3333 119.102 22.72C119.675 22.1067 120.502 21.8 121.582 21.8C122.662 21.8 123.489 22.1067 124.062 22.72C124.635 23.3333 124.922 24.2 124.922 25.32V32.68C124.922 33.8 124.635 34.6667 124.062 35.28C123.489 35.8933 122.662 36.2 121.582 36.2ZM121.582 34.2C122.342 34.2 122.722 33.74 122.722 32.82V25.18C122.722 24.26 122.342 23.8 121.582 23.8C120.822 23.8 120.442 24.26 120.442 25.18V32.82C120.442 33.74 120.822 34.2 121.582 34.2ZM129.27 36.2C128.203 36.2 127.397 35.9 126.85 35.3C126.303 34.6867 126.03 33.8133 126.03 32.68V31.88H128.11V32.84C128.11 33.7467 128.49 34.2 129.25 34.2C129.623 34.2 129.903 34.0933 130.09 33.88C130.29 33.6533 130.39 33.2933 130.39 32.8C130.39 32.2133 130.257 31.7 129.99 31.26C129.723 30.8067 129.23 30.2667 128.51 29.64C127.603 28.84 126.97 28.12 126.61 27.48C126.25 26.8267 126.07 26.0933 126.07 25.28C126.07 24.1733 126.35 23.32 126.91 22.72C127.47 22.1067 128.283 21.8 129.35 21.8C130.403 21.8 131.197 22.1067 131.73 22.72C132.277 23.32 132.55 24.1867 132.55 25.32V25.9H130.47V25.18C130.47 24.7 130.377 24.3533 130.19 24.14C130.003 23.9133 129.73 23.8 129.37 23.8C128.637 23.8 128.27 24.2467 128.27 25.14C128.27 25.6467 128.403 26.12 128.67 26.56C128.95 27 129.45 27.5333 130.17 28.16C131.09 28.96 131.723 29.6867 132.07 30.34C132.417 30.9933 132.59 31.76 132.59 32.64C132.59 33.7867 132.303 34.6667 131.73 35.28C131.17 35.8933 130.35 36.2 129.27 36.2ZM137.054 22H140.294C141.388 22 142.208 22.2933 142.754 22.88C143.301 23.4667 143.574 24.3267 143.574 25.46V26.84C143.574 27.9733 143.301 28.8333 142.754 29.42C142.208 30.0067 141.388 30.3 140.294 30.3H139.254V36H137.054V22ZM140.294 28.3C140.654 28.3 140.921 28.2 141.094 28C141.281 27.8 141.374 27.46 141.374 26.98V25.32C141.374 24.84 141.281 24.5 141.094 24.3C140.921 24.1 140.654 24 140.294 24H139.254V28.3H140.294ZM145.766 22H148.746L151.026 36H148.826L148.426 33.22V33.26H145.926L145.526 36H143.486L145.766 22ZM148.166 31.36L147.186 24.44H147.146L146.186 31.36H148.166ZM152.895 24H150.595V22H157.395V24H155.095V36H152.895V24ZM158.461 22H161.721C162.854 22 163.681 22.2667 164.201 22.8C164.721 23.32 164.981 24.1267 164.981 25.22V26.08C164.981 27.5333 164.501 28.4533 163.541 28.84V28.88C164.074 29.04 164.447 29.3667 164.661 29.86C164.887 30.3533 165.001 31.0133 165.001 31.84V34.3C165.001 34.7 165.014 35.0267 165.041 35.28C165.067 35.52 165.134 35.76 165.241 36H163.001C162.921 35.7733 162.867 35.56 162.841 35.36C162.814 35.16 162.801 34.8 162.801 34.28V31.72C162.801 31.08 162.694 30.6333 162.481 30.38C162.281 30.1267 161.927 30 161.421 30H160.661V36H158.461V22ZM161.461 28C161.901 28 162.227 27.8867 162.441 27.66C162.667 27.4333 162.781 27.0533 162.781 26.52V25.44C162.781 24.9333 162.687 24.5667 162.501 24.34C162.327 24.1133 162.047 24 161.661 24H160.661V28H161.461ZM166.527 22H168.727V36H166.527V22ZM170.375 22H173.515L174.915 32.02H174.955L176.355 22H179.495V36H177.415V25.4H177.375L175.775 36H173.935L172.335 25.4H172.295V36H170.375V22ZM184.316 36.2C183.236 36.2 182.41 35.8933 181.836 35.28C181.263 34.6667 180.976 33.8 180.976 32.68V25.32C180.976 24.2 181.263 23.3333 181.836 22.72C182.41 22.1067 183.236 21.8 184.316 21.8C185.396 21.8 186.223 22.1067 186.796 22.72C187.37 23.3333 187.656 24.2 187.656 25.32V32.68C187.656 33.8 187.37 34.6667 186.796 35.28C186.223 35.8933 185.396 36.2 184.316 36.2ZM184.316 34.2C185.076 34.2 185.456 33.74 185.456 32.82V25.18C185.456 24.26 185.076 23.8 184.316 23.8C183.556 23.8 183.176 24.26 183.176 25.18V32.82C183.176 33.74 183.556 34.2 184.316 34.2ZM183.276 18.76H185.356L186.996 21.06H185.336L184.316 19.96L183.296 21.06H181.636L183.276 18.76ZM189.144 22H191.904L194.044 30.38H194.084V22H196.044V36H193.784L191.144 25.78H191.104V36H189.144V22ZM197.679 22H199.879V36H197.679V22ZM204.707 36.2C203.627 36.2 202.8 35.8933 202.227 35.28C201.654 34.6667 201.367 33.8 201.367 32.68V25.32C201.367 24.2 201.654 23.3333 202.227 22.72C202.8 22.1067 203.627 21.8 204.707 21.8C205.787 21.8 206.614 22.1067 207.187 22.72C207.76 23.3333 208.047 24.2 208.047 25.32V32.68C208.047 33.8 207.76 34.6667 207.187 35.28C206.614 35.8933 205.787 36.2 204.707 36.2ZM204.707 34.2C205.467 34.2 205.847 33.74 205.847 32.82V25.18C205.847 24.26 205.467 23.8 204.707 23.8C203.947 23.8 203.567 24.26 203.567 25.18V32.82C203.567 33.74 203.947 34.2 204.707 34.2ZM212.395 36.2C211.328 36.2 210.522 35.9 209.975 35.3C209.428 34.6867 209.155 33.8133 209.155 32.68V31.88H211.235V32.84C211.235 33.7467 211.615 34.2 212.375 34.2C212.748 34.2 213.028 34.0933 213.215 33.88C213.415 33.6533 213.515 33.2933 213.515 32.8C213.515 32.2133 213.382 31.7 213.115 31.26C212.848 30.8067 212.355 30.2667 211.635 29.64C210.728 28.84 210.095 28.12 209.735 27.48C209.375 26.8267 209.195 26.0933 209.195 25.28C209.195 24.1733 209.475 23.32 210.035 22.72C210.595 22.1067 211.408 21.8 212.475 21.8C213.528 21.8 214.322 22.1067 214.855 22.72C215.402 23.32 215.675 24.1867 215.675 25.32V25.9H213.595V25.18C213.595 24.7 213.502 24.3533 213.315 24.14C213.128 23.9133 212.855 23.8 212.495 23.8C211.762 23.8 211.395 24.2467 211.395 25.14C211.395 25.6467 211.528 26.12 211.795 26.56C212.075 27 212.575 27.5333 213.295 28.16C214.215 28.96 214.848 29.6867 215.195 30.34C215.542 30.9933 215.715 31.76 215.715 32.64C215.715 33.7867 215.428 34.6667 214.855 35.28C214.295 35.8933 213.475 36.2 212.395 36.2ZM220.179 22H223.319L224.719 32.02H224.759L226.159 22H229.299V36H227.219V25.4H227.179L225.579 36H223.739L222.139 25.4H222.099V36H220.179V22ZM234.141 36.2C233.074 36.2 232.261 35.9 231.701 35.3C231.141 34.6867 230.861 33.8133 230.861 32.68V22H233.061V32.84C233.061 33.32 233.154 33.6667 233.341 33.88C233.541 34.0933 233.821 34.2 234.181 34.2C234.541 34.2 234.814 34.0933 235.001 33.88C235.201 33.6667 235.301 33.32 235.301 32.84V22H237.421V32.68C237.421 33.8133 237.141 34.6867 236.581 35.3C236.021 35.9 235.208 36.2 234.141 36.2ZM238.988 22H241.748L243.888 30.38H243.928V22H245.888V36H243.628L240.988 25.78H240.948V36H238.988V22ZM247.523 22H250.883C251.976 22 252.796 22.2933 253.343 22.88C253.89 23.4667 254.163 24.3267 254.163 25.46V32.54C254.163 33.6733 253.89 34.5333 253.343 35.12C252.796 35.7067 251.976 36 250.883 36H247.523V22ZM250.843 34C251.203 34 251.476 33.8933 251.663 33.68C251.863 33.4667 251.963 33.12 251.963 32.64V25.36C251.963 24.88 251.863 24.5333 251.663 24.32C251.476 24.1067 251.203 24 250.843 24H249.723V34H250.843ZM255.648 22H257.848V36H255.648V22ZM261.196 22H264.176L266.456 36H264.256L263.856 33.22V33.26H261.356L260.956 36H258.916L261.196 22ZM263.596 31.36L262.616 24.44H262.576L261.616 31.36H263.596ZM267.523 22H269.723V36H267.523V22ZM274.231 36.2C273.164 36.2 272.357 35.9 271.811 35.3C271.264 34.6867 270.991 33.8133 270.991 32.68V31.88H273.071V32.84C273.071 33.7467 273.451 34.2 274.211 34.2C274.584 34.2 274.864 34.0933 275.051 33.88C275.251 33.6533 275.351 33.2933 275.351 32.8C275.351 32.2133 275.217 31.7 274.951 31.26C274.684 30.8067 274.191 30.2667 273.471 29.64C272.564 28.84 271.931 28.12 271.571 27.48C271.211 26.8267 271.031 26.0933 271.031 25.28C271.031 24.1733 271.311 23.32 271.871 22.72C272.431 22.1067 273.244 21.8 274.311 21.8C275.364 21.8 276.157 22.1067 276.691 22.72C277.237 23.32 277.511 24.1867 277.511 25.32V25.9H275.431V25.18C275.431 24.7 275.337 24.3533 275.151 24.14C274.964 23.9133 274.691 23.8 274.331 23.8C273.597 23.8 273.231 24.2467 273.231 25.14C273.231 25.6467 273.364 26.12 273.631 26.56C273.911 27 274.411 27.5333 275.131 28.16C276.051 28.96 276.684 29.6867 277.031 30.34C277.377 30.9933 277.551 31.76 277.551 32.64C277.551 33.7867 277.264 34.6667 276.691 35.28C276.131 35.8933 275.311 36.2 274.231 36.2ZM84.4177 46H87.6577C88.751 46 89.571 46.2933 90.1177 46.88C90.6643 47.4667 90.9377 48.3267 90.9377 49.46V50.84C90.9377 51.9733 90.6643 52.8333 90.1177 53.42C89.571 54.0067 88.751 54.3 87.6577 54.3H86.6177V60H84.4177V46ZM87.6577 52.3C88.0177 52.3 88.2843 52.2 88.4577 52C88.6443 51.8 88.7377 51.46 88.7377 50.98V49.32C88.7377 48.84 88.6443 48.5 88.4577 48.3C88.2843 48.1 88.0177 48 87.6577 48H86.6177V52.3H87.6577ZM95.3125 60.2C94.2325 60.2 93.4058 59.8933 92.8325 59.28C92.2592 58.6667 91.9725 57.8 91.9725 56.68V49.32C91.9725 48.2 92.2592 47.3333 92.8325 46.72C93.4058 46.1067 94.2325 45.8 95.3125 45.8C96.3925 45.8 97.2192 46.1067 97.7925 46.72C98.3658 47.3333 98.6525 48.2 98.6525 49.32V56.68C98.6525 57.8 98.3658 58.6667 97.7925 59.28C97.2192 59.8933 96.3925 60.2 95.3125 60.2ZM95.3125 58.2C96.0725 58.2 96.4525 57.74 96.4525 56.82V49.18C96.4525 48.26 96.0725 47.8 95.3125 47.8C94.5525 47.8 94.1725 48.26 94.1725 49.18V56.82C94.1725 57.74 94.5525 58.2 95.3125 58.2ZM100.14 46H103.4C104.534 46 105.36 46.2667 105.88 46.8C106.4 47.32 106.66 48.1267 106.66 49.22V50.08C106.66 51.5333 106.18 52.4533 105.22 52.84V52.88C105.754 53.04 106.127 53.3667 106.34 53.86C106.567 54.3533 106.68 55.0133 106.68 55.84V58.3C106.68 58.7 106.694 59.0267 106.72 59.28C106.747 59.52 106.814 59.76 106.92 60H104.68C104.6 59.7733 104.547 59.56 104.52 59.36C104.494 59.16 104.48 58.8 104.48 58.28V55.72C104.48 55.08 104.374 54.6333 104.16 54.38C103.96 54.1267 103.607 54 103.1 54H102.34V60H100.14V46ZM103.14 52C103.58 52 103.907 51.8867 104.12 51.66C104.347 51.4333 104.46 51.0533 104.46 50.52V49.44C104.46 48.9333 104.367 48.5667 104.18 48.34C104.007 48.1133 103.727 48 103.34 48H102.34V52H103.14ZM111.41 46H114.67C115.803 46 116.63 46.2667 117.15 46.8C117.67 47.32 117.93 48.1267 117.93 49.22V50.08C117.93 51.5333 117.45 52.4533 116.49 52.84V52.88C117.023 53.04 117.397 53.3667 117.61 53.86C117.837 54.3533 117.95 55.0133 117.95 55.84V58.3C117.95 58.7 117.963 59.0267 117.99 59.28C118.017 59.52 118.083 59.76 118.19 60H115.95C115.87 59.7733 115.817 59.56 115.79 59.36C115.763 59.16 115.75 58.8 115.75 58.28V55.72C115.75 55.08 115.643 54.6333 115.43 54.38C115.23 54.1267 114.877 54 114.37 54H113.61V60H111.41V46ZM114.41 52C114.85 52 115.177 51.8867 115.39 51.66C115.617 51.4333 115.73 51.0533 115.73 50.52V49.44C115.73 48.9333 115.637 48.5667 115.45 48.34C115.277 48.1133 114.997 48 114.61 48H113.61V52H114.41ZM119.476 46H125.476V48H121.676V51.7H124.696V53.7H121.676V58H125.476V60H119.476V46ZM129.862 60.2C128.795 60.2 127.982 59.9 127.422 59.3C126.862 58.6867 126.582 57.8133 126.582 56.68V49.32C126.582 48.1867 126.862 47.32 127.422 46.72C127.982 46.1067 128.795 45.8 129.862 45.8C130.929 45.8 131.742 46.1067 132.302 46.72C132.862 47.32 133.142 48.1867 133.142 49.32V50.52H131.062V49.18C131.062 48.26 130.682 47.8 129.922 47.8C129.162 47.8 128.782 48.26 128.782 49.18V56.84C128.782 57.7467 129.162 58.2 129.922 58.2C130.682 58.2 131.062 57.7467 131.062 56.84V54.1H129.962V52.1H133.142V56.68C133.142 57.8133 132.862 58.6867 132.302 59.3C131.742 59.9 130.929 60.2 129.862 60.2ZM134.554 46H136.754V60H134.554V46ZM140.102 46H143.082L145.362 60H143.162L142.762 57.22V57.26H140.262L139.862 60H137.822L140.102 46ZM142.502 55.36L141.522 48.44H141.482L140.522 55.36H142.502ZM138.822 44.5C139.075 43.9267 139.349 43.5067 139.642 43.24C139.935 42.96 140.269 42.82 140.642 42.82C140.882 42.82 141.089 42.8533 141.262 42.92C141.449 42.9867 141.642 43.08 141.842 43.2C141.962 43.2667 142.075 43.3267 142.182 43.38C142.302 43.4333 142.415 43.46 142.522 43.46C142.682 43.46 142.822 43.4 142.942 43.28C143.062 43.16 143.189 42.96 143.322 42.68L144.382 43.32C144.129 43.8933 143.855 44.32 143.562 44.6C143.269 44.8667 142.935 45 142.562 45C142.322 45 142.109 44.9667 141.922 44.9C141.749 44.8333 141.562 44.74 141.362 44.62C141.242 44.5533 141.122 44.4933 141.002 44.44C140.895 44.3867 140.789 44.36 140.682 44.36C140.522 44.36 140.382 44.42 140.262 44.54C140.142 44.66 140.015 44.86 139.882 45.14L138.822 44.5ZM149.57 60.2C148.49 60.2 147.664 59.8933 147.09 59.28C146.517 58.6667 146.23 57.8 146.23 56.68V49.32C146.23 48.2 146.517 47.3333 147.09 46.72C147.664 46.1067 148.49 45.8 149.57 45.8C150.65 45.8 151.477 46.1067 152.05 46.72C152.624 47.3333 152.91 48.2 152.91 49.32V56.68C152.91 57.8 152.624 58.6667 152.05 59.28C151.477 59.8933 150.65 60.2 149.57 60.2ZM149.57 58.2C150.33 58.2 150.71 57.74 150.71 56.82V49.18C150.71 48.26 150.33 47.8 149.57 47.8C148.81 47.8 148.43 48.26 148.43 49.18V56.82C148.43 57.74 148.81 58.2 149.57 58.2ZM157.601 46H160.961C162.055 46 162.875 46.2933 163.421 46.88C163.968 47.4667 164.241 48.3267 164.241 49.46V56.54C164.241 57.6733 163.968 58.5333 163.421 59.12C162.875 59.7067 162.055 60 160.961 60H157.601V46ZM160.921 58C161.281 58 161.555 57.8933 161.741 57.68C161.941 57.4667 162.041 57.12 162.041 56.64V49.36C162.041 48.88 161.941 48.5333 161.741 48.32C161.555 48.1067 161.281 48 160.921 48H159.801V58H160.921ZM168.906 60.2C167.826 60.2 167 59.8933 166.426 59.28C165.853 58.6667 165.566 57.8 165.566 56.68V49.32C165.566 48.2 165.853 47.3333 166.426 46.72C167 46.1067 167.826 45.8 168.906 45.8C169.986 45.8 170.813 46.1067 171.386 46.72C171.96 47.3333 172.246 48.2 172.246 49.32V56.68C172.246 57.8 171.96 58.6667 171.386 59.28C170.813 59.8933 169.986 60.2 168.906 60.2ZM168.906 58.2C169.666 58.2 170.046 57.74 170.046 56.82V49.18C170.046 48.26 169.666 47.8 168.906 47.8C168.146 47.8 167.766 48.26 167.766 49.18V56.82C167.766 57.74 168.146 58.2 168.906 58.2ZM176.937 46H180.257C181.391 46 182.217 46.2667 182.737 46.8C183.257 47.32 183.517 48.1267 183.517 49.22V49.78C183.517 50.5 183.397 51.0867 183.157 51.54C182.931 51.9933 182.577 52.32 182.097 52.52V52.56C183.191 52.9333 183.737 53.9067 183.737 55.48V56.68C183.737 57.76 183.451 58.5867 182.877 59.16C182.317 59.72 181.491 60 180.397 60H176.937V46ZM179.997 51.7C180.437 51.7 180.764 51.5867 180.977 51.36C181.204 51.1333 181.317 50.7533 181.317 50.22V49.44C181.317 48.9333 181.224 48.5667 181.037 48.34C180.864 48.1133 180.584 48 180.197 48H179.137V51.7H179.997ZM180.397 58C180.784 58 181.071 57.9 181.257 57.7C181.444 57.4867 181.537 57.1267 181.537 56.62V55.4C181.537 54.76 181.424 54.32 181.197 54.08C180.984 53.8267 180.624 53.7 180.117 53.7H179.137V58H180.397ZM185.023 46H188.283C189.416 46 190.243 46.2667 190.763 46.8C191.283 47.32 191.543 48.1267 191.543 49.22V50.08C191.543 51.5333 191.063 52.4533 190.103 52.84V52.88C190.636 53.04 191.01 53.3667 191.223 53.86C191.45 54.3533 191.563 55.0133 191.563 55.84V58.3C191.563 58.7 191.576 59.0267 191.603 59.28C191.63 59.52 191.696 59.76 191.803 60H189.563C189.483 59.7733 189.43 59.56 189.403 59.36C189.376 59.16 189.363 58.8 189.363 58.28V55.72C189.363 55.08 189.256 54.6333 189.043 54.38C188.843 54.1267 188.49 54 187.983 54H187.223V60H185.023V46ZM188.023 52C188.463 52 188.79 51.8867 189.003 51.66C189.23 51.4333 189.343 51.0533 189.343 50.52V49.44C189.343 48.9333 189.25 48.5667 189.063 48.34C188.89 48.1133 188.61 48 188.223 48H187.223V52H188.023ZM194.79 46H197.77L200.05 60H197.85L197.45 57.22V57.26H194.95L194.55 60H192.51L194.79 46ZM197.19 55.36L196.21 48.44H196.17L195.21 55.36H197.19ZM203.918 60.2C202.852 60.2 202.045 59.9 201.498 59.3C200.952 58.6867 200.678 57.8133 200.678 56.68V55.88H202.758V56.84C202.758 57.7467 203.138 58.2 203.898 58.2C204.272 58.2 204.552 58.0933 204.738 57.88C204.938 57.6533 205.038 57.2933 205.038 56.8C205.038 56.2133 204.905 55.7 204.638 55.26C204.372 54.8067 203.878 54.2667 203.158 53.64C202.252 52.84 201.618 52.12 201.258 51.48C200.898 50.8267 200.718 50.0933 200.718 49.28C200.718 48.1733 200.998 47.32 201.558 46.72C202.118 46.1067 202.932 45.8 203.998 45.8C205.052 45.8 205.845 46.1067 206.378 46.72C206.925 47.32 207.198 48.1867 207.198 49.32V49.9H205.118V49.18C205.118 48.7 205.025 48.3533 204.838 48.14C204.652 47.9133 204.378 47.8 204.018 47.8C203.285 47.8 202.918 48.2467 202.918 49.14C202.918 49.6467 203.052 50.12 203.318 50.56C203.598 51 204.098 51.5333 204.818 52.16C205.738 52.96 206.372 53.6867 206.718 54.34C207.065 54.9933 207.238 55.76 207.238 56.64C207.238 57.7867 206.952 58.6667 206.378 59.28C205.818 59.8933 204.998 60.2 203.918 60.2ZM208.5 46H210.7V60H208.5V46ZM212.347 46H214.547V58H218.167V60H212.347V46Z" fill="black"/>
<path d="M47.208 335.12C46.568 335.12 46.084 334.94 45.756 334.58C45.428 334.212 45.264 333.688 45.264 333.008V332.528H46.512V333.104C46.512 333.648 46.74 333.92 47.196 333.92C47.42 333.92 47.588 333.856 47.7 333.728C47.82 333.592 47.88 333.376 47.88 333.08C47.88 332.728 47.8 332.42 47.64 332.156C47.48 331.884 47.184 331.56 46.752 331.184C46.208 330.704 45.828 330.272 45.612 329.888C45.396 329.496 45.288 329.056 45.288 328.568C45.288 327.904 45.456 327.392 45.792 327.032C46.128 326.664 46.616 326.48 47.256 326.48C47.888 326.48 48.364 326.664 48.684 327.032C49.012 327.392 49.176 327.912 49.176 328.592V328.94H47.928V328.508C47.928 328.22 47.872 328.012 47.76 327.884C47.648 327.748 47.484 327.68 47.268 327.68C46.828 327.68 46.608 327.948 46.608 328.484C46.608 328.788 46.688 329.072 46.848 329.336C47.016 329.6 47.316 329.92 47.748 330.296C48.3 330.776 48.68 331.212 48.888 331.604C49.096 331.996 49.2 332.456 49.2 332.984C49.2 333.672 49.028 334.2 48.684 334.568C48.348 334.936 47.856 335.12 47.208 335.12ZM51.8768 335.12C51.2368 335.12 50.7488 334.94 50.4128 334.58C50.0768 334.212 49.9088 333.688 49.9088 333.008V326.6H51.2288V333.104C51.2288 333.392 51.2848 333.6 51.3968 333.728C51.5168 333.856 51.6848 333.92 51.9008 333.92C52.1168 333.92 52.2808 333.856 52.3928 333.728C52.5128 333.6 52.5728 333.392 52.5728 333.104V326.6H53.8448V333.008C53.8448 333.688 53.6768 334.212 53.3408 334.58C53.0048 334.94 52.5168 335.12 51.8768 335.12ZM54.785 326.6H56.801C57.457 326.6 57.949 326.776 58.277 327.128C58.605 327.48 58.769 327.996 58.769 328.676V332.924C58.769 333.604 58.605 334.12 58.277 334.472C57.949 334.824 57.457 335 56.801 335H54.785V326.6ZM56.777 333.8C56.993 333.8 57.157 333.736 57.269 333.608C57.389 333.48 57.449 333.272 57.449 332.984V328.616C57.449 328.328 57.389 328.12 57.269 327.992C57.157 327.864 56.993 327.8 56.777 327.8H56.105V333.8H56.777ZM59.66 326.6H63.26V327.8H60.98V330.02H62.792V331.22H60.98V333.8H63.26V335H59.66V326.6ZM65.7588 335.12C65.1188 335.12 64.6348 334.94 64.3068 334.58C63.9788 334.212 63.8148 333.688 63.8148 333.008V332.528H65.0628V333.104C65.0628 333.648 65.2908 333.92 65.7468 333.92C65.9708 333.92 66.1388 333.856 66.2508 333.728C66.3708 333.592 66.4308 333.376 66.4308 333.08C66.4308 332.728 66.3508 332.42 66.1908 332.156C66.0308 331.884 65.7348 331.56 65.3028 331.184C64.7588 330.704 64.3788 330.272 64.1628 329.888C63.9468 329.496 63.8388 329.056 63.8388 328.568C63.8388 327.904 64.0068 327.392 64.3428 327.032C64.6788 326.664 65.1668 326.48 65.8068 326.48C66.4388 326.48 66.9148 326.664 67.2348 327.032C67.5628 327.392 67.7268 327.912 67.7268 328.592V328.94H66.4788V328.508C66.4788 328.22 66.4228 328.012 66.3108 327.884C66.1988 327.748 66.0348 327.68 65.8188 327.68C65.3788 327.68 65.1588 327.948 65.1588 328.484C65.1588 328.788 65.2388 329.072 65.3988 329.336C65.5668 329.6 65.8668 329.92 66.2988 330.296C66.8508 330.776 67.2308 331.212 67.4388 331.604C67.6468 331.996 67.7508 332.456 67.7508 332.984C67.7508 333.672 67.5788 334.2 67.2348 334.568C66.8988 334.936 66.4068 335.12 65.7588 335.12ZM69.5396 327.8H68.1596V326.6H72.2396V327.8H70.8596V335H69.5396V327.8ZM72.8787 326.6H76.4787V327.8H74.1987V330.02H76.0107V331.22H74.1987V333.8H76.4787V335H72.8787V326.6Z" fill="black"/>
<path d="M96.492 327.6H98.148L99.432 332.628H99.456V327.6H100.632V336H99.276L97.692 329.868H97.668V336H96.492V327.6ZM103.521 336.12C102.873 336.12 102.377 335.936 102.033 335.568C101.689 335.2 101.517 334.68 101.517 334.008V329.592C101.517 328.92 101.689 328.4 102.033 328.032C102.377 327.664 102.873 327.48 103.521 327.48C104.169 327.48 104.665 327.664 105.009 328.032C105.353 328.4 105.525 328.92 105.525 329.592V334.008C105.525 334.68 105.353 335.2 105.009 335.568C104.665 335.936 104.169 336.12 103.521 336.12ZM103.521 334.92C103.977 334.92 104.205 334.644 104.205 334.092V329.508C104.205 328.956 103.977 328.68 103.521 328.68C103.065 328.68 102.837 328.956 102.837 329.508V334.092C102.837 334.644 103.065 334.92 103.521 334.92ZM106.418 327.6H108.374C109.054 327.6 109.55 327.76 109.862 328.08C110.174 328.392 110.33 328.876 110.33 329.532V330.048C110.33 330.92 110.042 331.472 109.466 331.704V331.728C109.786 331.824 110.01 332.02 110.138 332.316C110.274 332.612 110.342 333.008 110.342 333.504V334.98C110.342 335.22 110.35 335.416 110.366 335.568C110.382 335.712 110.422 335.856 110.486 336H109.142C109.094 335.864 109.062 335.736 109.046 335.616C109.03 335.496 109.022 335.28 109.022 334.968V333.432C109.022 333.048 108.958 332.78 108.83 332.628C108.71 332.476 108.498 332.4 108.194 332.4H107.738V336H106.418V327.6ZM108.218 331.2C108.482 331.2 108.678 331.132 108.806 330.996C108.942 330.86 109.01 330.632 109.01 330.312V329.664C109.01 329.36 108.954 329.14 108.842 329.004C108.738 328.868 108.57 328.8 108.338 328.8H107.738V331.2H108.218ZM111.258 327.6H113.274C113.93 327.6 114.422 327.776 114.75 328.128C115.078 328.48 115.242 328.996 115.242 329.676V333.924C115.242 334.604 115.078 335.12 114.75 335.472C114.422 335.824 113.93 336 113.274 336H111.258V327.6ZM113.25 334.8C113.466 334.8 113.63 334.736 113.742 334.608C113.862 334.48 113.922 334.272 113.922 333.984V329.616C113.922 329.328 113.862 329.12 113.742 328.992C113.63 328.864 113.466 328.8 113.25 328.8H112.578V334.8H113.25ZM116.133 327.6H119.733V328.8H117.453V331.02H119.265V332.22H117.453V334.8H119.733V336H116.133V327.6ZM122.231 336.12C121.591 336.12 121.107 335.94 120.779 335.58C120.451 335.212 120.287 334.688 120.287 334.008V333.528H121.535V334.104C121.535 334.648 121.763 334.92 122.219 334.92C122.443 334.92 122.611 334.856 122.723 334.728C122.843 334.592 122.903 334.376 122.903 334.08C122.903 333.728 122.823 333.42 122.663 333.156C122.503 332.884 122.207 332.56 121.775 332.184C121.231 331.704 120.851 331.272 120.635 330.888C120.419 330.496 120.311 330.056 120.311 329.568C120.311 328.904 120.479 328.392 120.815 328.032C121.151 327.664 121.639 327.48 122.279 327.48C122.911 327.48 123.387 327.664 123.707 328.032C124.035 328.392 124.199 328.912 124.199 329.592V329.94H122.951V329.508C122.951 329.22 122.895 329.012 122.783 328.884C122.671 328.748 122.507 328.68 122.291 328.68C121.851 328.68 121.631 328.948 121.631 329.484C121.631 329.788 121.711 330.072 121.871 330.336C122.039 330.6 122.339 330.92 122.771 331.296C123.323 331.776 123.703 332.212 123.911 332.604C124.119 332.996 124.223 333.456 124.223 333.984C124.223 334.672 124.051 335.2 123.707 335.568C123.371 335.936 122.879 336.12 122.231 336.12ZM126.012 328.8H124.632V327.6H128.712V328.8H127.332V336H126.012V328.8ZM129.351 327.6H132.951V328.8H130.671V331.02H132.483V332.22H130.671V334.8H132.951V336H129.351V327.6Z" fill="black"/>
<path d="M146.352 335.12C145.72 335.12 145.236 334.94 144.9 334.58C144.572 334.22 144.408 333.712 144.408 333.056V328.544C144.408 327.888 144.572 327.38 144.9 327.02C145.236 326.66 145.72 326.48 146.352 326.48C146.984 326.48 147.464 326.66 147.792 327.02C148.128 327.38 148.296 327.888 148.296 328.544V329.432H147.048V328.46C147.048 327.94 146.828 327.68 146.388 327.68C145.948 327.68 145.728 327.94 145.728 328.46V333.152C145.728 333.664 145.948 333.92 146.388 333.92C146.828 333.92 147.048 333.664 147.048 333.152V331.868H148.296V333.056C148.296 333.712 148.128 334.22 147.792 334.58C147.464 334.94 146.984 335.12 146.352 335.12ZM149.086 326.6H152.686V327.8H150.406V330.02H152.218V331.22H150.406V333.8H152.686V335H149.086V326.6ZM153.445 326.6H155.101L156.385 331.628H156.409V326.6H157.585V335H156.229L154.645 328.868H154.621V335H153.445V326.6ZM159.598 327.8H158.218V326.6H162.298V327.8H160.918V335H159.598V327.8ZM162.937 326.6H164.893C165.573 326.6 166.069 326.76 166.381 327.08C166.693 327.392 166.849 327.876 166.849 328.532V329.048C166.849 329.92 166.561 330.472 165.985 330.704V330.728C166.305 330.824 166.529 331.02 166.657 331.316C166.793 331.612 166.861 332.008 166.861 332.504V333.98C166.861 334.22 166.869 334.416 166.885 334.568C166.901 334.712 166.941 334.856 167.005 335H165.661C165.613 334.864 165.581 334.736 165.565 334.616C165.549 334.496 165.541 334.28 165.541 333.968V332.432C165.541 332.048 165.477 331.78 165.349 331.628C165.229 331.476 165.017 331.4 164.713 331.4H164.257V335H162.937V326.6ZM164.737 330.2C165.001 330.2 165.197 330.132 165.325 329.996C165.461 329.86 165.529 329.632 165.529 329.312V328.664C165.529 328.36 165.473 328.14 165.361 328.004C165.257 327.868 165.089 327.8 164.857 327.8H164.257V330.2H164.737ZM169.685 335.12C169.037 335.12 168.541 334.936 168.197 334.568C167.853 334.2 167.681 333.68 167.681 333.008V328.592C167.681 327.92 167.853 327.4 168.197 327.032C168.541 326.664 169.037 326.48 169.685 326.48C170.333 326.48 170.829 326.664 171.173 327.032C171.517 327.4 171.689 327.92 171.689 328.592V333.008C171.689 333.68 171.517 334.2 171.173 334.568C170.829 334.936 170.333 335.12 169.685 335.12ZM169.685 333.92C170.141 333.92 170.369 333.644 170.369 333.092V328.508C170.369 327.956 170.141 327.68 169.685 327.68C169.229 327.68 169.001 327.956 169.001 328.508V333.092C169.001 333.644 169.229 333.92 169.685 333.92ZM172.39 330.2H175.03V331.4H172.39V330.2ZM177.724 335.12C177.076 335.12 176.58 334.936 176.236 334.568C175.892 334.2 175.72 333.68 175.72 333.008V328.592C175.72 327.92 175.892 327.4 176.236 327.032C176.58 326.664 177.076 326.48 177.724 326.48C178.372 326.48 178.868 326.664 179.212 327.032C179.556 327.4 179.728 327.92 179.728 328.592V333.008C179.728 333.68 179.556 334.2 179.212 334.568C178.868 334.936 178.372 335.12 177.724 335.12ZM177.724 333.92C178.18 333.92 178.408 333.644 178.408 333.092V328.508C178.408 327.956 178.18 327.68 177.724 327.68C177.268 327.68 177.04 327.956 177.04 328.508V333.092C177.04 333.644 177.268 333.92 177.724 333.92ZM180.621 326.6H184.221V327.8H181.941V330.02H183.753V331.22H181.941V333.8H184.221V335H180.621V326.6ZM186.72 335.12C186.08 335.12 185.596 334.94 185.268 334.58C184.94 334.212 184.776 333.688 184.776 333.008V332.528H186.024V333.104C186.024 333.648 186.252 333.92 186.708 333.92C186.932 333.92 187.1 333.856 187.212 333.728C187.332 333.592 187.392 333.376 187.392 333.08C187.392 332.728 187.312 332.42 187.152 332.156C186.992 331.884 186.696 331.56 186.264 331.184C185.72 330.704 185.34 330.272 185.124 329.888C184.908 329.496 184.8 329.056 184.8 328.568C184.8 327.904 184.968 327.392 185.304 327.032C185.64 326.664 186.128 326.48 186.768 326.48C187.4 326.48 187.876 326.664 188.196 327.032C188.524 327.392 188.688 327.912 188.688 328.592V328.94H187.44V328.508C187.44 328.22 187.384 328.012 187.272 327.884C187.16 327.748 186.996 327.68 186.78 327.68C186.34 327.68 186.12 327.948 186.12 328.484C186.12 328.788 186.2 329.072 186.36 329.336C186.528 329.6 186.828 329.92 187.26 330.296C187.812 330.776 188.192 331.212 188.4 331.604C188.608 331.996 188.712 332.456 188.712 332.984C188.712 333.672 188.54 334.2 188.196 334.568C187.86 334.936 187.368 335.12 186.72 335.12ZM190.501 327.8H189.121V326.6H193.201V327.8H191.821V335H190.501V327.8ZM193.84 326.6H197.44V327.8H195.16V330.02H196.972V331.22H195.16V333.8H197.44V335H193.84V326.6Z" fill="black"/>
<path d="M208.208 336.12C207.568 336.12 207.084 335.94 206.756 335.58C206.428 335.212 206.264 334.688 206.264 334.008V333.528H207.512V334.104C207.512 334.648 207.74 334.92 208.196 334.92C208.42 334.92 208.588 334.856 208.7 334.728C208.82 334.592 208.88 334.376 208.88 334.08C208.88 333.728 208.8 333.42 208.64 333.156C208.48 332.884 208.184 332.56 207.752 332.184C207.208 331.704 206.828 331.272 206.612 330.888C206.396 330.496 206.288 330.056 206.288 329.568C206.288 328.904 206.456 328.392 206.792 328.032C207.128 327.664 207.616 327.48 208.256 327.48C208.888 327.48 209.364 327.664 209.684 328.032C210.012 328.392 210.176 328.912 210.176 329.592V329.94H208.928V329.508C208.928 329.22 208.872 329.012 208.76 328.884C208.648 328.748 208.484 328.68 208.268 328.68C207.828 328.68 207.608 328.948 207.608 329.484C207.608 329.788 207.688 330.072 207.848 330.336C208.016 330.6 208.316 330.92 208.748 331.296C209.3 331.776 209.68 332.212 209.888 332.604C210.096 332.996 210.2 333.456 210.2 333.984C210.2 334.672 210.028 335.2 209.684 335.568C209.348 335.936 208.856 336.12 208.208 336.12ZM212.877 336.12C212.237 336.12 211.749 335.94 211.413 335.58C211.077 335.212 210.909 334.688 210.909 334.008V327.6H212.229V334.104C212.229 334.392 212.285 334.6 212.397 334.728C212.517 334.856 212.685 334.92 212.901 334.92C213.117 334.92 213.281 334.856 213.393 334.728C213.513 334.6 213.573 334.392 213.573 334.104V327.6H214.845V334.008C214.845 334.688 214.677 335.212 214.341 335.58C214.005 335.94 213.517 336.12 212.877 336.12ZM215.785 327.6H217.105V334.8H219.277V336H215.785V327.6Z" fill="black"/>
<path d="M243.208 337.12C242.568 337.12 242.084 336.94 241.756 336.58C241.428 336.212 241.264 335.688 241.264 335.008V334.528H242.512V335.104C242.512 335.648 242.74 335.92 243.196 335.92C243.42 335.92 243.588 335.856 243.7 335.728C243.82 335.592 243.88 335.376 243.88 335.08C243.88 334.728 243.8 334.42 243.64 334.156C243.48 333.884 243.184 333.56 242.752 333.184C242.208 332.704 241.828 332.272 241.612 331.888C241.396 331.496 241.288 331.056 241.288 330.568C241.288 329.904 241.456 329.392 241.792 329.032C242.128 328.664 242.616 328.48 243.256 328.48C243.888 328.48 244.364 328.664 244.684 329.032C245.012 329.392 245.176 329.912 245.176 330.592V330.94H243.928V330.508C243.928 330.22 243.872 330.012 243.76 329.884C243.648 329.748 243.484 329.68 243.268 329.68C242.828 329.68 242.608 329.948 242.608 330.484C242.608 330.788 242.688 331.072 242.848 331.336C243.016 331.6 243.316 331.92 243.748 332.296C244.3 332.776 244.68 333.212 244.888 333.604C245.096 333.996 245.2 334.456 245.2 334.984C245.2 335.672 245.028 336.2 244.684 336.568C244.348 336.936 243.856 337.12 243.208 337.12ZM247.877 337.12C247.237 337.12 246.749 336.94 246.413 336.58C246.077 336.212 245.909 335.688 245.909 335.008V328.6H247.229V335.104C247.229 335.392 247.285 335.6 247.397 335.728C247.517 335.856 247.685 335.92 247.901 335.92C248.117 335.92 248.281 335.856 248.393 335.728C248.513 335.6 248.573 335.392 248.573 335.104V328.6H249.845V335.008C249.845 335.688 249.677 336.212 249.341 336.58C249.005 336.94 248.517 337.12 247.877 337.12ZM250.785 328.6H252.801C253.457 328.6 253.949 328.776 254.277 329.128C254.605 329.48 254.769 329.996 254.769 330.676V334.924C254.769 335.604 254.605 336.12 254.277 336.472C253.949 336.824 253.457 337 252.801 337H250.785V328.6ZM252.777 335.8C252.993 335.8 253.157 335.736 253.269 335.608C253.389 335.48 253.449 335.272 253.449 334.984V330.616C253.449 330.328 253.389 330.12 253.269 329.992C253.157 329.864 252.993 329.8 252.777 329.8H252.105V335.8H252.777ZM255.66 328.6H259.26V329.8H256.98V332.02H258.792V333.22H256.98V335.8H259.26V337H255.66V328.6ZM261.759 337.12C261.119 337.12 260.635 336.94 260.307 336.58C259.979 336.212 259.815 335.688 259.815 335.008V334.528H261.063V335.104C261.063 335.648 261.291 335.92 261.747 335.92C261.971 335.92 262.139 335.856 262.251 335.728C262.371 335.592 262.431 335.376 262.431 335.08C262.431 334.728 262.351 334.42 262.191 334.156C262.031 333.884 261.735 333.56 261.303 333.184C260.759 332.704 260.379 332.272 260.163 331.888C259.947 331.496 259.839 331.056 259.839 330.568C259.839 329.904 260.007 329.392 260.343 329.032C260.679 328.664 261.167 328.48 261.807 328.48C262.439 328.48 262.915 328.664 263.235 329.032C263.563 329.392 263.727 329.912 263.727 330.592V330.94H262.479V330.508C262.479 330.22 262.423 330.012 262.311 329.884C262.199 329.748 262.035 329.68 261.819 329.68C261.379 329.68 261.159 329.948 261.159 330.484C261.159 330.788 261.239 331.072 261.399 331.336C261.567 331.6 261.867 331.92 262.299 332.296C262.851 332.776 263.231 333.212 263.439 333.604C263.647 333.996 263.751 334.456 263.751 334.984C263.751 335.672 263.579 336.2 263.235 336.568C262.899 336.936 262.407 337.12 261.759 337.12ZM265.54 329.8H264.16V328.6H268.24V329.8H266.86V337H265.54V329.8ZM268.879 328.6H272.479V329.8H270.199V332.02H272.011V333.22H270.199V335.8H272.479V337H268.879V328.6Z" fill="black"/>
<path d="M184.41 85H186.03C186.577 85 186.987 85.1467 187.26 85.44C187.533 85.7333 187.67 86.1633 187.67 86.73V87.42C187.67 87.9867 187.533 88.4167 187.26 88.71C186.987 89.0033 186.577 89.15 186.03 89.15H185.51V92H184.41V85ZM186.03 88.15C186.21 88.15 186.343 88.1 186.43 88C186.523 87.9 186.57 87.73 186.57 87.49V86.66C186.57 86.42 186.523 86.25 186.43 86.15C186.343 86.05 186.21 86 186.03 86H185.51V88.15H186.03ZM188.766 85H190.256L191.396 92H190.296L190.096 90.61V90.63H188.846L188.646 92H187.626L188.766 85ZM189.966 89.68L189.476 86.22H189.456L188.976 89.68H189.966ZM192.331 86H191.181V85H194.581V86H193.431V92H192.331V86ZM195.113 85H196.743C197.31 85 197.723 85.1333 197.983 85.4C198.243 85.66 198.373 86.0633 198.373 86.61V87.04C198.373 87.7667 198.133 88.2267 197.653 88.42V88.44C197.92 88.52 198.106 88.6833 198.213 88.93C198.326 89.1767 198.383 89.5067 198.383 89.92V91.15C198.383 91.35 198.39 91.5133 198.403 91.64C198.416 91.76 198.45 91.88 198.503 92H197.383C197.343 91.8867 197.316 91.78 197.303 91.68C197.29 91.58 197.283 91.4 197.283 91.14V89.86C197.283 89.54 197.23 89.3167 197.123 89.19C197.023 89.0633 196.846 89 196.593 89H196.213V92H195.113V85ZM196.613 88C196.833 88 196.996 87.9433 197.103 87.83C197.216 87.7167 197.273 87.5267 197.273 87.26V86.72C197.273 86.4667 197.226 86.2833 197.133 86.17C197.046 86.0567 196.906 86 196.713 86H196.213V88H196.613ZM199.146 85H200.246V92H199.146V85ZM201.07 85H202.64L203.34 90.01H203.36L204.06 85H205.63V92H204.59V86.7H204.57L203.77 92H202.85L202.05 86.7H202.03V92H201.07V85ZM208.041 92.1C207.501 92.1 207.088 91.9467 206.801 91.64C206.514 91.3333 206.371 90.9 206.371 90.34V86.66C206.371 86.1 206.514 85.6667 206.801 85.36C207.088 85.0533 207.501 84.9 208.041 84.9C208.581 84.9 208.994 85.0533 209.281 85.36C209.568 85.6667 209.711 86.1 209.711 86.66V90.34C209.711 90.9 209.568 91.3333 209.281 91.64C208.994 91.9467 208.581 92.1 208.041 92.1ZM208.041 91.1C208.421 91.1 208.611 90.87 208.611 90.41V86.59C208.611 86.13 208.421 85.9 208.041 85.9C207.661 85.9 207.471 86.13 207.471 86.59V90.41C207.471 90.87 207.661 91.1 208.041 91.1ZM207.521 83.38H208.561L209.381 84.53H208.551L208.041 83.98L207.531 84.53H206.701L207.521 83.38ZM210.455 85H211.835L212.905 89.19H212.925V85H213.905V92H212.775L211.455 86.89H211.435V92H210.455V85ZM214.723 85H215.823V92H214.723V85ZM218.236 92.1C217.696 92.1 217.283 91.9467 216.996 91.64C216.71 91.3333 216.566 90.9 216.566 90.34V86.66C216.566 86.1 216.71 85.6667 216.996 85.36C217.283 85.0533 217.696 84.9 218.236 84.9C218.776 84.9 219.19 85.0533 219.476 85.36C219.763 85.6667 219.906 86.1 219.906 86.66V90.34C219.906 90.9 219.763 91.3333 219.476 91.64C219.19 91.9467 218.776 92.1 218.236 92.1ZM218.236 91.1C218.616 91.1 218.806 90.87 218.806 90.41V86.59C218.806 86.13 218.616 85.9 218.236 85.9C217.856 85.9 217.666 86.13 217.666 86.59V90.41C217.666 90.87 217.856 91.1 218.236 91.1ZM222.252 85H223.632L224.702 89.19H224.722V85H225.702V92H224.572L223.252 86.89H223.232V92H222.252V85ZM227.369 85H228.859L229.999 92H228.899L228.699 90.61V90.63H227.449L227.249 92H226.229L227.369 85ZM228.569 89.68L228.079 86.22H228.059L227.579 89.68H228.569ZM230.934 86H229.784V85H233.184V86H232.034V92H230.934V86ZM235.317 92.1C234.783 92.1 234.377 91.95 234.097 91.65C233.817 91.3433 233.677 90.9067 233.677 90.34V85H234.777V90.42C234.777 90.66 234.823 90.8333 234.917 90.94C235.017 91.0467 235.157 91.1 235.337 91.1C235.517 91.1 235.653 91.0467 235.747 90.94C235.847 90.8333 235.897 90.66 235.897 90.42V85H236.957V90.34C236.957 90.9067 236.817 91.3433 236.537 91.65C236.257 91.95 235.85 92.1 235.317 92.1ZM237.74 85H239.37C239.937 85 240.35 85.1333 240.61 85.4C240.87 85.66 241 86.0633 241 86.61V87.04C241 87.7667 240.76 88.2267 240.28 88.42V88.44C240.547 88.52 240.733 88.6833 240.84 88.93C240.953 89.1767 241.01 89.5067 241.01 89.92V91.15C241.01 91.35 241.017 91.5133 241.03 91.64C241.043 91.76 241.077 91.88 241.13 92H240.01C239.97 91.8867 239.943 91.78 239.93 91.68C239.917 91.58 239.91 91.4 239.91 91.14V89.86C239.91 89.54 239.857 89.3167 239.75 89.19C239.65 89.0633 239.473 89 239.22 89H238.84V92H237.74V85ZM239.24 88C239.46 88 239.623 87.9433 239.73 87.83C239.843 87.7167 239.9 87.5267 239.9 87.26V86.72C239.9 86.4667 239.853 86.2833 239.76 86.17C239.673 86.0567 239.533 86 239.34 86H238.84V88H239.24ZM242.623 85H244.113L245.253 92H244.153L243.953 90.61V90.63H242.703L242.503 92H241.483L242.623 85ZM243.823 89.68L243.333 86.22H243.313L242.833 89.68H243.823ZM245.787 85H246.887V91H248.697V92H245.787V85ZM250.826 85H252.506C253.053 85 253.463 85.1467 253.736 85.44C254.009 85.7333 254.146 86.1633 254.146 86.73V90.27C254.146 90.8367 254.009 91.2667 253.736 91.56C253.463 91.8533 253.053 92 252.506 92H250.826V85ZM252.486 91C252.666 91 252.803 90.9467 252.896 90.84C252.996 90.7333 253.046 90.56 253.046 90.32V86.68C253.046 86.44 252.996 86.2667 252.896 86.16C252.803 86.0533 252.666 86 252.486 86H251.926V91H252.486ZM255.719 85H257.209L258.349 92H257.249L257.049 90.61V90.63H255.799L255.599 92H254.579L255.719 85ZM256.919 89.68L256.429 86.22H256.409L255.929 89.68H256.919ZM184.41 97H185.51V99.85H186.69V97H187.79V104H186.69V100.85H185.51V104H184.41V97ZM190.209 104.1C189.676 104.1 189.269 103.95 188.989 103.65C188.709 103.343 188.569 102.907 188.569 102.34V97H189.669V102.42C189.669 102.66 189.716 102.833 189.809 102.94C189.909 103.047 190.049 103.1 190.229 103.1C190.409 103.1 190.546 103.047 190.639 102.94C190.739 102.833 190.789 102.66 190.789 102.42V97H191.849V102.34C191.849 102.907 191.709 103.343 191.429 103.65C191.149 103.95 190.743 104.1 190.209 104.1ZM192.633 97H194.203L194.903 102.01H194.923L195.623 97H197.193V104H196.153V98.7H196.133L195.333 104H194.413L193.613 98.7H193.593V104H192.633V97ZM198.864 97H200.354L201.494 104H200.394L200.194 102.61V102.63H198.944L198.744 104H197.724L198.864 97ZM200.064 101.68L199.574 98.22H199.554L199.074 101.68H200.064ZM202.027 97H203.407L204.477 101.19H204.497V97H205.477V104H204.347L203.027 98.89H203.007V104H202.027V97ZM206.295 97H207.395V104H206.295V97ZM208.219 97H209.899C210.445 97 210.855 97.1467 211.129 97.44C211.402 97.7333 211.539 98.1633 211.539 98.73V102.27C211.539 102.837 211.402 103.267 211.129 103.56C210.855 103.853 210.445 104 209.899 104H208.219V97ZM209.879 103C210.059 103 210.195 102.947 210.289 102.84C210.389 102.733 210.439 102.56 210.439 102.32V98.68C210.439 98.44 210.389 98.2667 210.289 98.16C210.195 98.0533 210.059 98 209.879 98H209.319V103H209.879ZM213.112 97H214.602L215.742 104H214.642L214.442 102.61V102.63H213.192L212.992 104H211.972L213.112 97ZM214.312 101.68L213.822 98.22H213.802L213.322 101.68H214.312ZM216.275 97H217.955C218.502 97 218.912 97.1467 219.185 97.44C219.459 97.7333 219.595 98.1633 219.595 98.73V102.27C219.595 102.837 219.459 103.267 219.185 103.56C218.912 103.853 218.502 104 217.955 104H216.275V97ZM217.935 103C218.115 103 218.252 102.947 218.345 102.84C218.445 102.733 218.495 102.56 218.495 102.32V98.68C218.495 98.44 218.445 98.2667 218.345 98.16C218.252 98.0533 218.115 98 217.935 98H217.375V103H217.935ZM220.338 97H223.338V98H221.438V99.85H222.948V100.85H221.438V103H223.338V104H220.338V97Z" fill="black"/>
<path d="M184.41 85H186.03C186.577 85 186.987 85.1467 187.26 85.44C187.533 85.7333 187.67 86.1633 187.67 86.73V87.42C187.67 87.9867 187.533 88.4167 187.26 88.71C186.987 89.0033 186.577 89.15 186.03 89.15H185.51V92H184.41V85ZM186.03 88.15C186.21 88.15 186.343 88.1 186.43 88C186.523 87.9 186.57 87.73 186.57 87.49V86.66C186.57 86.42 186.523 86.25 186.43 86.15C186.343 86.05 186.21 86 186.03 86H185.51V88.15H186.03ZM188.766 85H190.256L191.396 92H190.296L190.096 90.61V90.63H188.846L188.646 92H187.626L188.766 85ZM189.966 89.68L189.476 86.22H189.456L188.976 89.68H189.966ZM192.331 86H191.181V85H194.581V86H193.431V92H192.331V86ZM195.113 85H196.743C197.31 85 197.723 85.1333 197.983 85.4C198.243 85.66 198.373 86.0633 198.373 86.61V87.04C198.373 87.7667 198.133 88.2267 197.653 88.42V88.44C197.92 88.52 198.106 88.6833 198.213 88.93C198.326 89.1767 198.383 89.5067 198.383 89.92V91.15C198.383 91.35 198.39 91.5133 198.403 91.64C198.416 91.76 198.45 91.88 198.503 92H197.383C197.343 91.8867 197.316 91.78 197.303 91.68C197.29 91.58 197.283 91.4 197.283 91.14V89.86C197.283 89.54 197.23 89.3167 197.123 89.19C197.023 89.0633 196.846 89 196.593 89H196.213V92H195.113V85ZM196.613 88C196.833 88 196.996 87.9433 197.103 87.83C197.216 87.7167 197.273 87.5267 197.273 87.26V86.72C197.273 86.4667 197.226 86.2833 197.133 86.17C197.046 86.0567 196.906 86 196.713 86H196.213V88H196.613ZM199.146 85H200.246V92H199.146V85ZM201.07 85H202.64L203.34 90.01H203.36L204.06 85H205.63V92H204.59V86.7H204.57L203.77 92H202.85L202.05 86.7H202.03V92H201.07V85ZM208.041 92.1C207.501 92.1 207.088 91.9467 206.801 91.64C206.514 91.3333 206.371 90.9 206.371 90.34V86.66C206.371 86.1 206.514 85.6667 206.801 85.36C207.088 85.0533 207.501 84.9 208.041 84.9C208.581 84.9 208.994 85.0533 209.281 85.36C209.568 85.6667 209.711 86.1 209.711 86.66V90.34C209.711 90.9 209.568 91.3333 209.281 91.64C208.994 91.9467 208.581 92.1 208.041 92.1ZM208.041 91.1C208.421 91.1 208.611 90.87 208.611 90.41V86.59C208.611 86.13 208.421 85.9 208.041 85.9C207.661 85.9 207.471 86.13 207.471 86.59V90.41C207.471 90.87 207.661 91.1 208.041 91.1ZM207.521 83.38H208.561L209.381 84.53H208.551L208.041 83.98L207.531 84.53H206.701L207.521 83.38ZM210.455 85H211.835L212.905 89.19H212.925V85H213.905V92H212.775L211.455 86.89H211.435V92H210.455V85ZM214.723 85H215.823V92H214.723V85ZM218.236 92.1C217.696 92.1 217.283 91.9467 216.996 91.64C216.71 91.3333 216.566 90.9 216.566 90.34V86.66C216.566 86.1 216.71 85.6667 216.996 85.36C217.283 85.0533 217.696 84.9 218.236 84.9C218.776 84.9 219.19 85.0533 219.476 85.36C219.763 85.6667 219.906 86.1 219.906 86.66V90.34C219.906 90.9 219.763 91.3333 219.476 91.64C219.19 91.9467 218.776 92.1 218.236 92.1ZM218.236 91.1C218.616 91.1 218.806 90.87 218.806 90.41V86.59C218.806 86.13 218.616 85.9 218.236 85.9C217.856 85.9 217.666 86.13 217.666 86.59V90.41C217.666 90.87 217.856 91.1 218.236 91.1ZM222.252 85H223.632L224.702 89.19H224.722V85H225.702V92H224.572L223.252 86.89H223.232V92H222.252V85ZM227.369 85H228.859L229.999 92H228.899L228.699 90.61V90.63H227.449L227.249 92H226.229L227.369 85ZM228.569 89.68L228.079 86.22H228.059L227.579 89.68H228.569ZM230.934 86H229.784V85H233.184V86H232.034V92H230.934V86ZM235.317 92.1C234.783 92.1 234.377 91.95 234.097 91.65C233.817 91.3433 233.677 90.9067 233.677 90.34V85H234.777V90.42C234.777 90.66 234.823 90.8333 234.917 90.94C235.017 91.0467 235.157 91.1 235.337 91.1C235.517 91.1 235.653 91.0467 235.747 90.94C235.847 90.8333 235.897 90.66 235.897 90.42V85H236.957V90.34C236.957 90.9067 236.817 91.3433 236.537 91.65C236.257 91.95 235.85 92.1 235.317 92.1ZM237.74 85H239.37C239.937 85 240.35 85.1333 240.61 85.4C240.87 85.66 241 86.0633 241 86.61V87.04C241 87.7667 240.76 88.2267 240.28 88.42V88.44C240.547 88.52 240.733 88.6833 240.84 88.93C240.953 89.1767 241.01 89.5067 241.01 89.92V91.15C241.01 91.35 241.017 91.5133 241.03 91.64C241.043 91.76 241.077 91.88 241.13 92H240.01C239.97 91.8867 239.943 91.78 239.93 91.68C239.917 91.58 239.91 91.4 239.91 91.14V89.86C239.91 89.54 239.857 89.3167 239.75 89.19C239.65 89.0633 239.473 89 239.22 89H238.84V92H237.74V85ZM239.24 88C239.46 88 239.623 87.9433 239.73 87.83C239.843 87.7167 239.9 87.5267 239.9 87.26V86.72C239.9 86.4667 239.853 86.2833 239.76 86.17C239.673 86.0567 239.533 86 239.34 86H238.84V88H239.24ZM242.623 85H244.113L245.253 92H244.153L243.953 90.61V90.63H242.703L242.503 92H241.483L242.623 85ZM243.823 89.68L243.333 86.22H243.313L242.833 89.68H243.823ZM245.787 85H246.887V91H248.697V92H245.787V85ZM250.826 85H252.506C253.053 85 253.463 85.1467 253.736 85.44C254.009 85.7333 254.146 86.1633 254.146 86.73V90.27C254.146 90.8367 254.009 91.2667 253.736 91.56C253.463 91.8533 253.053 92 252.506 92H250.826V85ZM252.486 91C252.666 91 252.803 90.9467 252.896 90.84C252.996 90.7333 253.046 90.56 253.046 90.32V86.68C253.046 86.44 252.996 86.2667 252.896 86.16C252.803 86.0533 252.666 86 252.486 86H251.926V91H252.486ZM255.719 85H257.209L258.349 92H257.249L257.049 90.61V90.63H255.799L255.599 92H254.579L255.719 85ZM256.919 89.68L256.429 86.22H256.409L255.929 89.68H256.919ZM184.41 97H185.51V99.85H186.69V97H187.79V104H186.69V100.85H185.51V104H184.41V97ZM190.209 104.1C189.676 104.1 189.269 103.95 188.989 103.65C188.709 103.343 188.569 102.907 188.569 102.34V97H189.669V102.42C189.669 102.66 189.716 102.833 189.809 102.94C189.909 103.047 190.049 103.1 190.229 103.1C190.409 103.1 190.546 103.047 190.639 102.94C190.739 102.833 190.789 102.66 190.789 102.42V97H191.849V102.34C191.849 102.907 191.709 103.343 191.429 103.65C191.149 103.95 190.743 104.1 190.209 104.1ZM192.633 97H194.203L194.903 102.01H194.923L195.623 97H197.193V104H196.153V98.7H196.133L195.333 104H194.413L193.613 98.7H193.593V104H192.633V97ZM198.864 97H200.354L201.494 104H200.394L200.194 102.61V102.63H198.944L198.744 104H197.724L198.864 97ZM200.064 101.68L199.574 98.22H199.554L199.074 101.68H200.064ZM202.027 97H203.407L204.477 101.19H204.497V97H205.477V104H204.347L203.027 98.89H203.007V104H202.027V97ZM206.295 97H207.395V104H206.295V97ZM208.219 97H209.899C210.445 97 210.855 97.1467 211.129 97.44C211.402 97.7333 211.539 98.1633 211.539 98.73V102.27C211.539 102.837 211.402 103.267 211.129 103.56C210.855 103.853 210.445 104 209.899 104H208.219V97ZM209.879 103C210.059 103 210.195 102.947 210.289 102.84C210.389 102.733 210.439 102.56 210.439 102.32V98.68C210.439 98.44 210.389 98.2667 210.289 98.16C210.195 98.0533 210.059 98 209.879 98H209.319V103H209.879ZM213.112 97H214.602L215.742 104H214.642L214.442 102.61V102.63H213.192L212.992 104H211.972L213.112 97ZM214.312 101.68L213.822 98.22H213.802L213.322 101.68H214.312ZM216.275 97H217.955C218.502 97 218.912 97.1467 219.185 97.44C219.459 97.7333 219.595 98.1633 219.595 98.73V102.27C219.595 102.837 219.459 103.267 219.185 103.56C218.912 103.853 218.502 104 217.955 104H216.275V97ZM217.935 103C218.115 103 218.252 102.947 218.345 102.84C218.445 102.733 218.495 102.56 218.495 102.32V98.68C218.495 98.44 218.445 98.2667 218.345 98.16C218.252 98.0533 218.115 98 217.935 98H217.375V103H217.935ZM220.338 97H223.338V98H221.438V99.85H222.948V100.85H221.438V103H223.338V104H220.338V97Z" fill="black" fill-opacity="0.2"/>
<path d="M184.41 113H186.03C186.577 113 186.987 113.147 187.26 113.44C187.533 113.733 187.67 114.163 187.67 114.73V115.42C187.67 115.987 187.533 116.417 187.26 116.71C186.987 117.003 186.577 117.15 186.03 117.15H185.51V120H184.41V113ZM186.03 116.15C186.21 116.15 186.343 116.1 186.43 116C186.523 115.9 186.57 115.73 186.57 115.49V114.66C186.57 114.42 186.523 114.25 186.43 114.15C186.343 114.05 186.21 114 186.03 114H185.51V116.15H186.03ZM188.766 113H190.256L191.396 120H190.296L190.096 118.61V118.63H188.846L188.646 120H187.626L188.766 113ZM189.966 117.68L189.476 114.22H189.456L188.976 117.68H189.966ZM192.331 114H191.181V113H194.581V114H193.431V120H192.331V114ZM195.113 113H196.743C197.31 113 197.723 113.133 197.983 113.4C198.243 113.66 198.373 114.063 198.373 114.61V115.04C198.373 115.767 198.133 116.227 197.653 116.42V116.44C197.92 116.52 198.106 116.683 198.213 116.93C198.326 117.177 198.383 117.507 198.383 117.92V119.15C198.383 119.35 198.39 119.513 198.403 119.64C198.416 119.76 198.45 119.88 198.503 120H197.383C197.343 119.887 197.316 119.78 197.303 119.68C197.29 119.58 197.283 119.4 197.283 119.14V117.86C197.283 117.54 197.23 117.317 197.123 117.19C197.023 117.063 196.846 117 196.593 117H196.213V120H195.113V113ZM196.613 116C196.833 116 196.996 115.943 197.103 115.83C197.216 115.717 197.273 115.527 197.273 115.26V114.72C197.273 114.467 197.226 114.283 197.133 114.17C197.046 114.057 196.906 114 196.713 114H196.213V116H196.613ZM199.146 113H200.246V120H199.146V113ZM201.07 113H202.64L203.34 118.01H203.36L204.06 113H205.63V120H204.59V114.7H204.57L203.77 120H202.85L202.05 114.7H202.03V120H201.07V113ZM208.041 120.1C207.501 120.1 207.088 119.947 206.801 119.64C206.514 119.333 206.371 118.9 206.371 118.34V114.66C206.371 114.1 206.514 113.667 206.801 113.36C207.088 113.053 207.501 112.9 208.041 112.9C208.581 112.9 208.994 113.053 209.281 113.36C209.568 113.667 209.711 114.1 209.711 114.66V118.34C209.711 118.9 209.568 119.333 209.281 119.64C208.994 119.947 208.581 120.1 208.041 120.1ZM208.041 119.1C208.421 119.1 208.611 118.87 208.611 118.41V114.59C208.611 114.13 208.421 113.9 208.041 113.9C207.661 113.9 207.471 114.13 207.471 114.59V118.41C207.471 118.87 207.661 119.1 208.041 119.1ZM207.521 111.38H208.561L209.381 112.53H208.551L208.041 111.98L207.531 112.53H206.701L207.521 111.38ZM210.455 113H211.835L212.905 117.19H212.925V113H213.905V120H212.775L211.455 114.89H211.435V120H210.455V113ZM214.723 113H215.823V120H214.723V113ZM218.236 120.1C217.696 120.1 217.283 119.947 216.996 119.64C216.71 119.333 216.566 118.9 216.566 118.34V114.66C216.566 114.1 216.71 113.667 216.996 113.36C217.283 113.053 217.696 112.9 218.236 112.9C218.776 112.9 219.19 113.053 219.476 113.36C219.763 113.667 219.906 114.1 219.906 114.66V118.34C219.906 118.9 219.763 119.333 219.476 119.64C219.19 119.947 218.776 120.1 218.236 120.1ZM218.236 119.1C218.616 119.1 218.806 118.87 218.806 118.41V114.59C218.806 114.13 218.616 113.9 218.236 113.9C217.856 113.9 217.666 114.13 217.666 114.59V118.41C217.666 118.87 217.856 119.1 218.236 119.1ZM223.802 120.1C223.275 120.1 222.872 119.95 222.592 119.65C222.318 119.35 222.182 118.927 222.182 118.38V114.62C222.182 114.073 222.318 113.65 222.592 113.35C222.872 113.05 223.275 112.9 223.802 112.9C224.328 112.9 224.728 113.05 225.002 113.35C225.282 113.65 225.422 114.073 225.422 114.62V115.36H224.382V114.55C224.382 114.117 224.198 113.9 223.832 113.9C223.465 113.9 223.282 114.117 223.282 114.55V118.46C223.282 118.887 223.465 119.1 223.832 119.1C224.198 119.1 224.382 118.887 224.382 118.46V117.39H225.422V118.38C225.422 118.927 225.282 119.35 225.002 119.65C224.728 119.95 224.328 120.1 223.802 120.1ZM227.68 120.1C227.147 120.1 226.74 119.95 226.46 119.65C226.18 119.343 226.04 118.907 226.04 118.34V113H227.14V118.42C227.14 118.66 227.187 118.833 227.28 118.94C227.38 119.047 227.52 119.1 227.7 119.1C227.88 119.1 228.017 119.047 228.11 118.94C228.21 118.833 228.26 118.66 228.26 118.42V113H229.32V118.34C229.32 118.907 229.18 119.343 228.9 119.65C228.62 119.95 228.213 120.1 227.68 120.1ZM230.103 113H231.203V119H233.013V120H230.103V113ZM233.62 114H232.47V113H235.87V114H234.72V120H233.62V114ZM238.002 120.1C237.469 120.1 237.062 119.95 236.782 119.65C236.502 119.343 236.362 118.907 236.362 118.34V113H237.462V118.42C237.462 118.66 237.509 118.833 237.602 118.94C237.702 119.047 237.842 119.1 238.022 119.1C238.202 119.1 238.339 119.047 238.432 118.94C238.532 118.833 238.582 118.66 238.582 118.42V113H239.642V118.34C239.642 118.907 239.502 119.343 239.222 119.65C238.942 119.95 238.536 120.1 238.002 120.1ZM240.426 113H242.056C242.622 113 243.036 113.133 243.296 113.4C243.556 113.66 243.686 114.063 243.686 114.61V115.04C243.686 115.767 243.446 116.227 242.966 116.42V116.44C243.232 116.52 243.419 116.683 243.526 116.93C243.639 117.177 243.696 117.507 243.696 117.92V119.15C243.696 119.35 243.702 119.513 243.716 119.64C243.729 119.76 243.762 119.88 243.816 120H242.696C242.656 119.887 242.629 119.78 242.616 119.68C242.602 119.58 242.596 119.4 242.596 119.14V117.86C242.596 117.54 242.542 117.317 242.436 117.19C242.336 117.063 242.159 117 241.906 117H241.526V120H240.426V113ZM241.926 116C242.146 116 242.309 115.943 242.416 115.83C242.529 115.717 242.586 115.527 242.586 115.26V114.72C242.586 114.467 242.539 114.283 242.446 114.17C242.359 114.057 242.219 114 242.026 114H241.526V116H241.926ZM245.309 113H246.799L247.939 120H246.839L246.639 118.61V118.63H245.389L245.189 120H244.169L245.309 113ZM246.509 117.68L246.019 114.22H245.999L245.519 117.68H246.509ZM248.473 113H249.573V119H251.383V120H248.473V113ZM253.512 113H255.192C255.738 113 256.148 113.147 256.422 113.44C256.695 113.733 256.832 114.163 256.832 114.73V118.27C256.832 118.837 256.695 119.267 256.422 119.56C256.148 119.853 255.738 120 255.192 120H253.512V113ZM255.172 119C255.352 119 255.488 118.947 255.582 118.84C255.682 118.733 255.732 118.56 255.732 118.32V114.68C255.732 114.44 255.682 114.267 255.582 114.16C255.488 114.053 255.352 114 255.172 114H254.612V119H255.172ZM258.405 113H259.895L261.035 120H259.935L259.735 118.61V118.63H258.485L258.285 120H257.265L258.405 113ZM259.605 117.68L259.115 114.22H259.095L258.615 117.68H259.605ZM184.41 125H185.51V127.85H186.69V125H187.79V132H186.69V128.85H185.51V132H184.41V125ZM190.209 132.1C189.676 132.1 189.269 131.95 188.989 131.65C188.709 131.343 188.569 130.907 188.569 130.34V125H189.669V130.42C189.669 130.66 189.716 130.833 189.809 130.94C189.909 131.047 190.049 131.1 190.229 131.1C190.409 131.1 190.546 131.047 190.639 130.94C190.739 130.833 190.789 130.66 190.789 130.42V125H191.849V130.34C191.849 130.907 191.709 131.343 191.429 131.65C191.149 131.95 190.743 132.1 190.209 132.1ZM192.633 125H194.203L194.903 130.01H194.923L195.623 125H197.193V132H196.153V126.7H196.133L195.333 132H194.413L193.613 126.7H193.593V132H192.633V125ZM198.864 125H200.354L201.494 132H200.394L200.194 130.61V130.63H198.944L198.744 132H197.724L198.864 125ZM200.064 129.68L199.574 126.22H199.554L199.074 129.68H200.064ZM202.027 125H203.407L204.477 129.19H204.497V125H205.477V132H204.347L203.027 126.89H203.007V132H202.027V125ZM206.295 125H207.395V132H206.295V125ZM208.219 125H209.899C210.445 125 210.855 125.147 211.129 125.44C211.402 125.733 211.539 126.163 211.539 126.73V130.27C211.539 130.837 211.402 131.267 211.129 131.56C210.855 131.853 210.445 132 209.899 132H208.219V125ZM209.879 131C210.059 131 210.195 130.947 210.289 130.84C210.389 130.733 210.439 130.56 210.439 130.32V126.68C210.439 126.44 210.389 126.267 210.289 126.16C210.195 126.053 210.059 126 209.879 126H209.319V131H209.879ZM213.112 125H214.602L215.742 132H214.642L214.442 130.61V130.63H213.192L212.992 132H211.972L213.112 125ZM214.312 129.68L213.822 126.22H213.802L213.322 129.68H214.312ZM216.275 125H217.955C218.502 125 218.912 125.147 219.185 125.44C219.459 125.733 219.595 126.163 219.595 126.73V130.27C219.595 130.837 219.459 131.267 219.185 131.56C218.912 131.853 218.502 132 217.955 132H216.275V125ZM217.935 131C218.115 131 218.252 130.947 218.345 130.84C218.445 130.733 218.495 130.56 218.495 130.32V126.68C218.495 126.44 218.445 126.267 218.345 126.16C218.252 126.053 218.115 126 217.935 126H217.375V131H217.935ZM220.338 125H223.338V126H221.438V127.85H222.948V128.85H221.438V131H223.338V132H220.338V125Z" fill="black"/>
<path d="M184.41 141H186.03C186.577 141 186.987 141.147 187.26 141.44C187.533 141.733 187.67 142.163 187.67 142.73V143.42C187.67 143.987 187.533 144.417 187.26 144.71C186.987 145.003 186.577 145.15 186.03 145.15H185.51V148H184.41V141ZM186.03 144.15C186.21 144.15 186.343 144.1 186.43 144C186.523 143.9 186.57 143.73 186.57 143.49V142.66C186.57 142.42 186.523 142.25 186.43 142.15C186.343 142.05 186.21 142 186.03 142H185.51V144.15H186.03ZM188.766 141H190.256L191.396 148H190.296L190.096 146.61V146.63H188.846L188.646 148H187.626L188.766 141ZM189.966 145.68L189.476 142.22H189.456L188.976 145.68H189.966ZM192.331 142H191.181V141H194.581V142H193.431V148H192.331V142ZM195.113 141H196.743C197.31 141 197.723 141.133 197.983 141.4C198.243 141.66 198.373 142.063 198.373 142.61V143.04C198.373 143.767 198.133 144.227 197.653 144.42V144.44C197.92 144.52 198.106 144.683 198.213 144.93C198.326 145.177 198.383 145.507 198.383 145.92V147.15C198.383 147.35 198.39 147.513 198.403 147.64C198.416 147.76 198.45 147.88 198.503 148H197.383C197.343 147.887 197.316 147.78 197.303 147.68C197.29 147.58 197.283 147.4 197.283 147.14V145.86C197.283 145.54 197.23 145.317 197.123 145.19C197.023 145.063 196.846 145 196.593 145H196.213V148H195.113V141ZM196.613 144C196.833 144 196.996 143.943 197.103 143.83C197.216 143.717 197.273 143.527 197.273 143.26V142.72C197.273 142.467 197.226 142.283 197.133 142.17C197.046 142.057 196.906 142 196.713 142H196.213V144H196.613ZM199.146 141H200.246V148H199.146V141ZM201.07 141H202.64L203.34 146.01H203.36L204.06 141H205.63V148H204.59V142.7H204.57L203.77 148H202.85L202.05 142.7H202.03V148H201.07V141ZM208.041 148.1C207.501 148.1 207.088 147.947 206.801 147.64C206.514 147.333 206.371 146.9 206.371 146.34V142.66C206.371 142.1 206.514 141.667 206.801 141.36C207.088 141.053 207.501 140.9 208.041 140.9C208.581 140.9 208.994 141.053 209.281 141.36C209.568 141.667 209.711 142.1 209.711 142.66V146.34C209.711 146.9 209.568 147.333 209.281 147.64C208.994 147.947 208.581 148.1 208.041 148.1ZM208.041 147.1C208.421 147.1 208.611 146.87 208.611 146.41V142.59C208.611 142.13 208.421 141.9 208.041 141.9C207.661 141.9 207.471 142.13 207.471 142.59V146.41C207.471 146.87 207.661 147.1 208.041 147.1ZM207.521 139.38H208.561L209.381 140.53H208.551L208.041 139.98L207.531 140.53H206.701L207.521 139.38ZM210.455 141H211.835L212.905 145.19H212.925V141H213.905V148H212.775L211.455 142.89H211.435V148H210.455V141ZM214.723 141H215.823V148H214.723V141ZM218.236 148.1C217.696 148.1 217.283 147.947 216.996 147.64C216.71 147.333 216.566 146.9 216.566 146.34V142.66C216.566 142.1 216.71 141.667 216.996 141.36C217.283 141.053 217.696 140.9 218.236 140.9C218.776 140.9 219.19 141.053 219.476 141.36C219.763 141.667 219.906 142.1 219.906 142.66V146.34C219.906 146.9 219.763 147.333 219.476 147.64C219.19 147.947 218.776 148.1 218.236 148.1ZM218.236 147.1C218.616 147.1 218.806 146.87 218.806 146.41V142.59C218.806 142.13 218.616 141.9 218.236 141.9C217.856 141.9 217.666 142.13 217.666 142.59V146.41C217.666 146.87 217.856 147.1 218.236 147.1ZM222.252 141H223.822L224.522 146.01H224.542L225.242 141H226.812V148H225.772V142.7H225.752L224.952 148H224.032L223.232 142.7H223.212V148H222.252V141ZM227.633 141H228.733V148H227.633V141ZM230.986 148.1C230.453 148.1 230.05 147.95 229.776 147.65C229.503 147.343 229.366 146.907 229.366 146.34V145.94H230.406V146.42C230.406 146.873 230.596 147.1 230.976 147.1C231.163 147.1 231.303 147.047 231.396 146.94C231.496 146.827 231.546 146.647 231.546 146.4C231.546 146.107 231.48 145.85 231.346 145.63C231.213 145.403 230.966 145.133 230.606 144.82C230.153 144.42 229.836 144.06 229.656 143.74C229.476 143.413 229.386 143.047 229.386 142.64C229.386 142.087 229.526 141.66 229.806 141.36C230.086 141.053 230.493 140.9 231.026 140.9C231.553 140.9 231.95 141.053 232.216 141.36C232.49 141.66 232.626 142.093 232.626 142.66V142.95H231.586V142.59C231.586 142.35 231.54 142.177 231.446 142.07C231.353 141.957 231.216 141.9 231.036 141.9C230.67 141.9 230.486 142.123 230.486 142.57C230.486 142.823 230.553 143.06 230.686 143.28C230.826 143.5 231.076 143.767 231.436 144.08C231.896 144.48 232.213 144.843 232.386 145.17C232.56 145.497 232.646 145.88 232.646 146.32C232.646 146.893 232.503 147.333 232.216 147.64C231.936 147.947 231.526 148.1 230.986 148.1ZM234.137 142H232.987V141H236.387V142H235.237V148H234.137V142ZM238.471 148.1C237.931 148.1 237.517 147.947 237.231 147.64C236.944 147.333 236.801 146.9 236.801 146.34V142.66C236.801 142.1 236.944 141.667 237.231 141.36C237.517 141.053 237.931 140.9 238.471 140.9C239.011 140.9 239.424 141.053 239.711 141.36C239.997 141.667 240.141 142.1 240.141 142.66V146.34C240.141 146.9 239.997 147.333 239.711 147.64C239.424 147.947 239.011 148.1 238.471 148.1ZM238.471 147.1C238.851 147.1 239.041 146.87 239.041 146.41V142.59C239.041 142.13 238.851 141.9 238.471 141.9C238.091 141.9 237.901 142.13 237.901 142.59V146.41C237.901 146.87 238.091 147.1 238.471 147.1ZM242.486 141H244.166C244.713 141 245.123 141.147 245.396 141.44C245.67 141.733 245.806 142.163 245.806 142.73V146.27C245.806 146.837 245.67 147.267 245.396 147.56C245.123 147.853 244.713 148 244.166 148H242.486V141ZM244.146 147C244.326 147 244.463 146.947 244.556 146.84C244.656 146.733 244.706 146.56 244.706 146.32V142.68C244.706 142.44 244.656 142.267 244.556 142.16C244.463 142.053 244.326 142 244.146 142H243.586V147H244.146ZM247.379 141H248.869L250.009 148H248.909L248.709 146.61V146.63H247.459L247.259 148H246.239L247.379 141ZM248.579 145.68L248.089 142.22H248.069L247.589 145.68H248.579ZM184.41 153H185.51V155.85H186.69V153H187.79V160H186.69V156.85H185.51V160H184.41V153ZM190.209 160.1C189.676 160.1 189.269 159.95 188.989 159.65C188.709 159.343 188.569 158.907 188.569 158.34V153H189.669V158.42C189.669 158.66 189.716 158.833 189.809 158.94C189.909 159.047 190.049 159.1 190.229 159.1C190.409 159.1 190.546 159.047 190.639 158.94C190.739 158.833 190.789 158.66 190.789 158.42V153H191.849V158.34C191.849 158.907 191.709 159.343 191.429 159.65C191.149 159.95 190.743 160.1 190.209 160.1ZM192.633 153H194.203L194.903 158.01H194.923L195.623 153H197.193V160H196.153V154.7H196.133L195.333 160H194.413L193.613 154.7H193.593V160H192.633V153ZM198.864 153H200.354L201.494 160H200.394L200.194 158.61V158.63H198.944L198.744 160H197.724L198.864 153ZM200.064 157.68L199.574 154.22H199.554L199.074 157.68H200.064ZM202.027 153H203.407L204.477 157.19H204.497V153H205.477V160H204.347L203.027 154.89H203.007V160H202.027V153ZM206.295 153H207.395V160H206.295V153ZM208.219 153H209.899C210.445 153 210.855 153.147 211.129 153.44C211.402 153.733 211.539 154.163 211.539 154.73V158.27C211.539 158.837 211.402 159.267 211.129 159.56C210.855 159.853 210.445 160 209.899 160H208.219V153ZM209.879 159C210.059 159 210.195 158.947 210.289 158.84C210.389 158.733 210.439 158.56 210.439 158.32V154.68C210.439 154.44 210.389 154.267 210.289 154.16C210.195 154.053 210.059 154 209.879 154H209.319V159H209.879ZM213.112 153H214.602L215.742 160H214.642L214.442 158.61V158.63H213.192L212.992 160H211.972L213.112 153ZM214.312 157.68L213.822 154.22H213.802L213.322 157.68H214.312ZM216.275 153H217.955C218.502 153 218.912 153.147 219.185 153.44C219.459 153.733 219.595 154.163 219.595 154.73V158.27C219.595 158.837 219.459 159.267 219.185 159.56C218.912 159.853 218.502 160 217.955 160H216.275V153ZM217.935 159C218.115 159 218.252 158.947 218.345 158.84C218.445 158.733 218.495 158.56 218.495 158.32V154.68C218.495 154.44 218.445 154.267 218.345 154.16C218.252 154.053 218.115 154 217.935 154H217.375V159H217.935ZM220.338 153H223.338V154H221.438V155.85H222.948V156.85H221.438V159H223.338V160H220.338V153Z" fill="black"/>
<ellipse rx="10" ry="10" transform="matrix(-0.999905 -0.0138101 0.0100487 -0.99995 61.0995 308.138)" fill="#2CA25F"/>
<rect x="51" y="280.37" width="20" height="9.62963" fill="#2CA25F"/>
<g filter="url(#filter0_d_66_8292)">
<ellipse cx="61" cy="279.259" rx="10" ry="9.25926" fill="#2CA25F"/>
</g>
<rect x="51" y="270" width="20" height="8.88889" fill="#D92525"/>
<rect x="154" y="150.37" width="20" height="9.62963" fill="#2CA25F"/>
<g filter="url(#filter1_d_66_8292)">
<ellipse cx="164" cy="149.259" rx="10" ry="9.25926" fill="#2CA25F"/>
</g>
<rect x="154" y="140" width="20" height="8.88889" fill="#D92525"/>
<rect width="20" height="20" transform="matrix(-0.999905 -0.0138101 0.0100487 -0.99995 70.998 178.275)" fill="#D92525"/>
<rect width="20" height="20" transform="matrix(-0.999905 -0.0138101 0.0100487 -0.99995 70.998 122.275)" fill="#D92525"/>
<rect width="20" height="20" transform="matrix(-0.999905 -0.0138101 0.0100487 -0.99995 70.998 234.275)" fill="#D92525"/>
<rect width="20" height="20" transform="matrix(-0.999905 -0.0138101 0.0100487 -0.99995 70.998 94.2752)" fill="#D92525"/>
<rect width="20" height="20" transform="matrix(-0.999905 -0.0138101 0.0100487 -0.99995 70.998 206.275)" fill="#D92525"/>
<rect width="20" height="20" transform="matrix(-0.999905 -0.0138101 0.0100487 -0.99995 70.998 150.275)" fill="#D92525"/>
<rect width="20" height="20" transform="matrix(-0.999905 -0.0138101 0.0100487 -0.99995 70.998 262.275)" fill="#D92525"/>
<ellipse rx="10" ry="10" transform="matrix(-0.999905 -0.0138101 0.0100487 -0.99995 114.099 308.138)" fill="#2CA25F"/>
<rect x="104" y="280.37" width="20" height="9.62963" fill="#2CA25F"/>
<g filter="url(#filter2_d_66_8292)">
<ellipse cx="114" cy="279.259" rx="10" ry="9.25926" fill="#2CA25F"/>
</g>
<rect x="104" y="270" width="20" height="8.88889" fill="#D92525"/>
<rect width="20" height="20" transform="matrix(-0.999905 -0.0138101 0.0100487 -0.99995 123.998 178.275)" fill="#D92525"/>
<rect width="20" height="20" transform="matrix(-0.999905 -0.0138101 0.0100487 -0.99995 123.998 234.275)" fill="#D92525"/>
<rect width="20" height="20" transform="matrix(-0.999905 -0.0138101 0.0100487 -0.99995 123.998 206.275)" fill="#D92525"/>
<rect width="20" height="20" transform="matrix(-0.999905 -0.0138101 0.0100487 -0.99995 123.998 150.275)" fill="#D92525"/>
<rect width="20" height="20" transform="matrix(-0.999905 -0.0138101 0.0100487 -0.99995 173.998 130.275)" fill="#D92525"/>
<rect width="20" height="20" transform="matrix(-0.999905 -0.0138101 0.0100487 -0.99995 123.998 262.275)" fill="#D92525"/>
<ellipse rx="10" ry="10" transform="matrix(-0.999905 -0.0138101 0.0100487 -0.99995 214.1 308.138)" fill="#2CA25F"/>
<ellipse rx="10" ry="10" transform="matrix(-0.999905 -0.0138101 0.0100487 -0.99995 214.099 280.138)" fill="#2CA25F"/>
<rect width="20" height="20" transform="matrix(-0.999905 -0.0138101 0.0100487 -0.99995 223.998 262.275)" fill="#D92525"/>
<ellipse rx="10" ry="10" transform="matrix(-0.999905 -0.0138101 0.0100487 -0.99995 164.1 308.138)" fill="#2CA25F"/>
<rect width="20" height="20" transform="matrix(-0.999905 -0.0138101 0.0100487 -0.99995 173.998 262.275)" fill="#D92525"/>
<rect width="20" height="20" transform="matrix(-0.999905 -0.0138101 0.0100487 -0.99995 173.998 290.275)" fill="#D92525"/>
<ellipse rx="10" ry="10" transform="matrix(-0.999905 -0.0138101 0.0100487 -0.99995 256.102 308.138)" fill="#2CA25F"/>
<ellipse rx="10" ry="10" transform="matrix(-0.999905 -0.0138101 0.0100487 -0.99995 256.102 280.138)" fill="#2CA25F"/>
<ellipse rx="10" ry="10" transform="matrix(-0.999905 -0.0138101 0.0100487 -0.99995 164.099 92.1376)" fill="#2CA25F"/>
<defs>
<filter id="filter0_d_66_8292" x="47" y="270" width="28" height="26.5185" filterUnits="userSpaceOnUse" color-interpolation-filters="sRGB">
<feFlood flood-opacity="0" result="BackgroundImageFix"/>
<feColorMatrix in="SourceAlpha" type="matrix" values="0 0 0 0 0 0 0 0 0 0 0 0 0 0 0 0 0 0 127 0" result="hardAlpha"/>
<feOffset dy="4"/>
<feGaussianBlur stdDeviation="2"/>
<feComposite in2="hardAlpha" operator="out"/>
<feColorMatrix type="matrix" values="0 0 0 0 0 0 0 0 0 0 0 0 0 0 0 0 0 0 0.25 0"/>
<feBlend mode="normal" in2="BackgroundImageFix" result="effect1_dropShadow_66_8292"/>
<feBlend mode="normal" in="SourceGraphic" in2="effect1_dropShadow_66_8292" result="shape"/>
</filter>
<filter id="filter1_d_66_8292" x="150" y="140" width="28" height="26.5185" filterUnits="userSpaceOnUse" color-interpolation-filters="sRGB">
<feFlood flood-opacity="0" result="BackgroundImageFix"/>
<feColorMatrix in="SourceAlpha" type="matrix" values="0 0 0 0 0 0 0 0 0 0 0 0 0 0 0 0 0 0 127 0" result="hardAlpha"/>
<feOffset dy="4"/>
<feGaussianBlur stdDeviation="2"/>
<feComposite in2="hardAlpha" operator="out"/>
<feColorMatrix type="matrix" values="0 0 0 0 0 0 0 0 0 0 0 0 0 0 0 0 0 0 0.25 0"/>
<feBlend mode="normal" in2="BackgroundImageFix" result="effect1_dropShadow_66_8292"/>
<feBlend mode="normal" in="SourceGraphic" in2="effect1_dropShadow_66_8292" result="shape"/>
</filter>
<filter id="filter2_d_66_8292" x="100" y="270" width="28" height="26.5185" filterUnits="userSpaceOnUse" color-interpolation-filters="sRGB">
<feFlood flood-opacity="0" result="BackgroundImageFix"/>
<feColorMatrix in="SourceAlpha" type="matrix" values="0 0 0 0 0 0 0 0 0 0 0 0 0 0 0 0 0 0 127 0" result="hardAlpha"/>
<feOffset dy="4"/>
<feGaussianBlur stdDeviation="2"/>
<feComposite in2="hardAlpha" operator="out"/>
<feColorMatrix type="matrix" values="0 0 0 0 0 0 0 0 0 0 0 0 0 0 0 0 0 0 0.25 0"/>
<feBlend mode="normal" in2="BackgroundImageFix" result="effect1_dropShadow_66_8292"/>
<feBlend mode="normal" in="SourceGraphic" in2="effect1_dropShadow_66_8292" result="shape"/>
</filter>
</defs>
</svg>
