<svg width="453" height="185" viewBox="0 0 453 185" fill="none" xmlns="http://www.w3.org/2000/svg">
<g id="Group 14">
<path id="BR-MG" d="M218.888 78.6651L217.708 77.9476L214.415 76.8909L212.366 76.9953L210.966 77.4127L209.877 78.2085L207.051 78.5868L205.313 78.4173L207.478 81.3786L207.453 82.4353L205.987 82.2918L204.626 81.3264L204.224 81.3525L201.411 83.0615L199.894 85.5793L200.283 86.4925L202.007 87.3666L202.681 88.2276L202.642 90.7323L202.254 92.7413L202.526 93.2762L204.224 93.7328L204.445 95.9767L204.03 96.5246L202.798 96.8377L201.54 96.7985L200.503 96.3419L198.585 96.4593L198.027 97.1768L198.662 98.1031L199.648 98.4684L200.231 98.0901L200.905 98.2075L202.331 99.8642L203.978 103.53L204.354 106.7L203.654 110.575L201.437 113.301L199.829 114.423L199.492 114.997L199.181 117.241L198.04 120.228L196.601 121.885L195.343 126.112L194.63 126.53L187.953 126.49L185.723 129.178L185.516 129.726L186.281 133.796L185.542 135.492L184.971 138.545L185.347 138.727L182.067 141.793L180.459 142.145L179.733 142.797L180.693 143.711L177.633 151.603L175.17 156.443L175.053 157.422L176.92 157.591L177.296 158.387L177.024 159.065L173.744 160.344L161.414 166.253L159.638 166.514L159.664 165.914L159.028 165.692L155.748 165.34L155.009 165.419L152.909 166.645L151.288 166.854L147.139 166.958L146.673 166.54L146.012 166.645L140.696 168.967L139.335 169.971L137.118 170.976L136.469 170.611L133.111 170.832L129.339 172.581L126.201 173.546L125.319 174.185L123.699 175.138L120.847 175.425L118.344 176.755L116.75 178.373L114.429 179.247L111.343 179.573L108.309 179.469L108.296 178.829L108.75 178.19L108.633 177.734L107.091 178.164L106.857 181.165L107.168 181.465L107.104 182.56L106.131 183.839L104.446 184.256L103.707 183.695L99.0264 185L98.7801 184.309L96.1742 184.622L94.7221 184.296L92.0902 179.977L93.6719 179.051L92.9977 176.82L90.664 175.738L88.3433 174.133L87.4228 172.033L88.1099 169.998L88.3563 165.497L88.0192 161.661L90.4307 158.113L91.3382 155.269L91.4031 153.612L91.1049 153.13L86.3078 151.408L85.0113 151.473L84.6483 151.942L83.637 152.347L81.5497 152.412L81.5886 151.303L80.5125 148.707L78.827 146.372L78.3473 143.489L77.9454 142.68L76.9212 141.715L77.1675 139.184L79.1382 136.536L79.216 135.805L78.6974 133.783L76.2599 132.204L75.508 131.409L75.884 128.317L76.623 126.999L76.3637 125.642L72.1241 121.272L70.4387 121.65L69.3367 122.485L67.1974 121.468L64.1118 121.611L63.7099 122.407L63.9692 123.007L63.3987 124.299L59.7945 125.186L58.3553 124.625L56.3976 122.733L55.0882 124.364L44.4828 125.251L43.8864 125.877L43.2641 127.43L43.6142 130.743L43.0826 131.317L41.5397 130.639L41.5268 127.012L41.2027 125.76L40.7359 125.251L40.0099 125.186L39.6728 125.434L39.1412 126.908L38.2726 128.134L37.5725 128.552L36.7686 128.525L35.1999 125.786L34.772 123.933L34.9536 122.746L32.7755 121.716L29.9491 119.863L27.369 120.633L25.2687 120.346L23.1036 120.802L17.5416 119.55L14.2355 119.446L11.9926 117.424L11.0202 117.241L9.07548 118.037L7.22146 120.242L4.73221 120.724L1.94475 122.172L0.363018 123.646L0.764929 120.228L0 116.041L1.28352 110.588L2.03547 110.262L3.15048 110.862L3.6172 110.562L3.63018 110.118L2.90414 109.322L3.64315 106.844L5.76939 104.104L6.9881 103.139L7.57154 102.956L8.66059 103.165L9.72373 102.8L10.8128 101.104L10.735 99.799L12.3037 96.5898L14.1318 93.8502L17.023 93.1458L20.2383 91.8934L25.0483 92.7022L29.1841 90.5627L31.1548 90.9541L32.8532 92.8066H33.2811L37.0539 88.9973L42.4084 85.5532L45.0144 86.7143L50.0189 86.5055L51.9377 86.8708L54.2066 86.8578L54.9585 86.7403L55.6716 86.1142L61.3113 88.5407L62.2189 89.5452L68.5587 85.9707L69.1811 84.5096L70.2961 83.3355L71.8 83.0745L75.8062 80.3871L74.2634 75.8734L74.9246 73.4077L75.871 72.2336L76.0914 71.3074L75.858 70.0028L75.2487 69.207L73.2002 68.4635L72.0334 69.0766L70.6202 67.6285L71.1777 64.8368L75.3783 60.91L78.3862 57.3747V56.5919L76.247 50.6431L74.406 49.2994L73.3039 48.8559L72.2019 47.2773L72.7335 45.3596L74.0818 43.7289L74.9634 41.6547L74.5615 39.6065L75.2487 37.6236L76.8953 37.467L79.8642 35.4971L84.2205 34.323L84.9076 33.6316L84.013 28.0742L83.3259 27.8263L82.7813 27.0305L82.7295 24.5519L83.6759 23.6387L84.4149 22.4124L83.7797 20.8991L82.8462 20.7687L83.7797 16.6201L84.2593 16.2548L85.7762 15.9548L89.3805 17.442L89.8991 17.2724L90.6381 16.568L89.8861 11.6497L91.4031 9.70595L94.5406 11.6367L95.7074 13.9327L99.8951 14.3763L101.192 13.0587L101.853 16.2027L99.9988 20.6904L100.517 20.9904L102.255 19.8032L103.162 18.4987L104.096 18.3291L106.857 18.8248L108.206 17.8203L110.604 14.4676L111.888 14.6633L113.742 13.9719L116.088 11.9498L117.32 10.4234L119.939 9.88857L124.308 7.4621L125.138 6.01405L130.674 2.06119L135.627 0L137.96 0.117406L139.516 0.769687L142.342 0.808822L145.298 1.50024L146.4 2.10037L144.728 5.67485L144.533 6.83589L144.871 8.77972L145.661 9.432L152.572 11.3367L153.402 11.1149L154.452 9.65375L156.889 8.49271L159.184 8.15352L162.723 9.13194L164.15 9.83641L169.789 14.585L171.06 14.3502L173.873 16.4636L177.153 18.0551L178.359 18.3421L179.02 18.0682L181.004 19.6858L186.696 18.0813L187.188 18.3161L195.641 26.4043L196.212 31.5704L196.951 31.2964L200.335 31.8835L202.241 31.2312L203.952 29.9397L206.532 30.1354L210.071 30.866L213.002 32.2749L215.841 33.0707L218.589 33.0315L222.258 36.2538L223.205 36.7495L224.359 36.8408L225.37 38.1715L225.915 39.6978L224.009 43.7159L217.578 49.2212L217.384 52.6782L218.11 54.0089V54.5568L216.787 55.483L213.572 55.17L212.509 56.318L211.446 60.623L210.759 66.3631L211.044 66.6892L211.498 66.4414L211.757 65.8543L212.587 65.5412L213.339 67.1458L213.053 69.1157L213.248 69.781L218.615 73.773L219.303 75.1297L219.315 75.8212L218.434 77.5823L218.888 78.6651Z" fill="#BAE4BC"/>
<path id="MG" d="M127.902 84.6H131.356L132.896 95.622H132.94L134.48 84.6H137.934V100H135.646V88.34H135.602L133.842 100H131.818L130.058 88.34H130.014V100H127.902V84.6ZM143.172 100.22C141.999 100.22 141.104 99.89 140.488 99.23C139.872 98.5553 139.564 97.5947 139.564 96.348V88.252C139.564 87.0053 139.872 86.052 140.488 85.392C141.104 84.7173 141.999 84.38 143.172 84.38C144.345 84.38 145.24 84.7173 145.856 85.392C146.472 86.052 146.78 87.0053 146.78 88.252V89.572H144.492V88.098C144.492 87.086 144.074 86.58 143.238 86.58C142.402 86.58 141.984 87.086 141.984 88.098V96.524C141.984 97.5213 142.402 98.02 143.238 98.02C144.074 98.02 144.492 97.5213 144.492 96.524V93.51H143.282V91.31H146.78V96.348C146.78 97.5947 146.472 98.5553 145.856 99.23C145.24 99.89 144.345 100.22 143.172 100.22Z" fill="white"/>
<g id="cultura-quadrado">
<g id="Rectangle 32">
<rect id="Rectangle 25" x="128" y="141" width="10.0407" height="10" fill="#D92525"/>
</g>
</g>
<g id="cultura-quadrado_2">
<g id="Rectangle 32_2">
<rect id="Rectangle 25_2" x="123" y="109" width="10.0407" height="10" fill="#D92525"/>
</g>
</g>
<g id="cultura-quadrado_3">
<g id="Rectangle 32_3">
<rect id="Rectangle 25_3" x="117" y="156" width="10.0407" height="10" fill="#D92525"/>
</g>
</g>
<g id="cultura-quadrado_4">
<g id="Rectangle 32_4">
<rect id="Rectangle 25_4" x="160.13" y="63" width="10.0407" height="10" fill="#D92525"/>
</g>
</g>
<g id="cultura-quadrado_5">
<g id="Rectangle 32_5">
<rect id="Rectangle 25_5" x="221" y="158" width="5" height="5" fill="#D92525"/>
</g>
</g>
<g id="cultura-quadrado_6">
<g id="Rectangle 32_6">
<rect id="Rectangle 25_6" x="221" y="141" width="5" height="5" fill="#D92525"/>
</g>
</g>
<g id="cultura-quadrado_7">
<g id="Rectangle 32_7">
<rect id="Rectangle 25_7" x="221" y="123" width="5" height="5" fill="#D92525"/>
</g>
</g>
<g id="cultura-quadrado_8">
<g id="Rectangle 32_8">
<rect id="Rectangle 25_8" x="221" y="105" width="5" height="5" fill="#D92525"/>
</g>
</g>
<path id="Centro Hist&#195;&#179;rico do Munic&#195;&#173;pio de Diamantina Conjunto Moderno da Pampulha Cidade Hist&#195;&#179;rica de Ouro Preto Santu&#195;&#161;rio do Bom Jesus do Congonhas" d="M231.94 109.15C231.15 109.15 230.545 108.925 230.125 108.475C229.715 108.025 229.51 107.39 229.51 106.57V100.93C229.51 100.11 229.715 99.475 230.125 99.025C230.545 98.575 231.15 98.35 231.94 98.35C232.73 98.35 233.33 98.575 233.74 99.025C234.16 99.475 234.37 100.11 234.37 100.93V102.04H232.81V100.825C232.81 100.175 232.535 99.85 231.985 99.85C231.435 99.85 231.16 100.175 231.16 100.825V106.69C231.16 107.33 231.435 107.65 231.985 107.65C232.535 107.65 232.81 107.33 232.81 106.69V105.085H234.37V106.57C234.37 107.39 234.16 108.025 233.74 108.475C233.33 108.925 232.73 109.15 231.94 109.15ZM235.357 98.5H239.857V100H237.007V102.775H239.272V104.275H237.007V107.5H239.857V109H235.357V98.5ZM240.806 98.5H242.876L244.481 104.785H244.511V98.5H245.981V109H244.286L242.306 101.335H242.276V109H240.806V98.5ZM248.498 100H246.773V98.5H251.873V100H250.148V109H248.498V100ZM252.672 98.5H255.117C255.967 98.5 256.587 98.7 256.977 99.1C257.367 99.49 257.562 100.095 257.562 100.915V101.56C257.562 102.65 257.202 103.34 256.482 103.63V103.66C256.882 103.78 257.162 104.025 257.322 104.395C257.492 104.765 257.577 105.26 257.577 105.88V107.725C257.577 108.025 257.587 108.27 257.607 108.46C257.627 108.64 257.677 108.82 257.757 109H256.077C256.017 108.83 255.977 108.67 255.957 108.52C255.937 108.37 255.927 108.1 255.927 107.71V105.79C255.927 105.31 255.847 104.975 255.687 104.785C255.537 104.595 255.272 104.5 254.892 104.5H254.322V109H252.672V98.5ZM254.922 103C255.252 103 255.497 102.915 255.657 102.745C255.827 102.575 255.912 102.29 255.912 101.89V101.08C255.912 100.7 255.842 100.425 255.702 100.255C255.572 100.085 255.362 100 255.072 100H254.322V103H254.922ZM261.106 109.15C260.296 109.15 259.676 108.92 259.246 108.46C258.816 108 258.601 107.35 258.601 106.51V100.99C258.601 100.15 258.816 99.5 259.246 99.04C259.676 98.58 260.296 98.35 261.106 98.35C261.916 98.35 262.536 98.58 262.966 99.04C263.396 99.5 263.611 100.15 263.611 100.99V106.51C263.611 107.35 263.396 108 262.966 108.46C262.536 108.92 261.916 109.15 261.106 109.15ZM261.106 107.65C261.676 107.65 261.961 107.305 261.961 106.615V100.885C261.961 100.195 261.676 99.85 261.106 99.85C260.536 99.85 260.251 100.195 260.251 100.885V106.615C260.251 107.305 260.536 107.65 261.106 107.65ZM267.13 98.5H268.78V102.775H270.55V98.5H272.2V109H270.55V104.275H268.78V109H267.13V98.5ZM273.428 98.5H275.078V109H273.428V98.5ZM278.459 109.15C277.659 109.15 277.054 108.925 276.644 108.475C276.234 108.015 276.029 107.36 276.029 106.51V105.91H277.589V106.63C277.589 107.31 277.874 107.65 278.444 107.65C278.724 107.65 278.934 107.57 279.074 107.41C279.224 107.24 279.299 106.97 279.299 106.6C279.299 106.16 279.199 105.775 278.999 105.445C278.799 105.105 278.429 104.7 277.889 104.23C277.209 103.63 276.734 103.09 276.464 102.61C276.194 102.12 276.059 101.57 276.059 100.96C276.059 100.13 276.269 99.49 276.689 99.04C277.109 98.58 277.719 98.35 278.519 98.35C279.309 98.35 279.904 98.58 280.304 99.04C280.714 99.49 280.919 100.14 280.919 100.99V101.425H279.359V100.885C279.359 100.525 279.289 100.265 279.149 100.105C279.009 99.935 278.804 99.85 278.534 99.85C277.984 99.85 277.709 100.185 277.709 100.855C277.709 101.235 277.809 101.59 278.009 101.92C278.219 102.25 278.594 102.65 279.134 103.12C279.824 103.72 280.299 104.265 280.559 104.755C280.819 105.245 280.949 105.82 280.949 106.48C280.949 107.34 280.734 108 280.304 108.46C279.884 108.92 279.269 109.15 278.459 109.15ZM283.185 100H281.46V98.5H286.56V100H284.835V109H283.185V100ZM289.686 109.15C288.876 109.15 288.256 108.92 287.826 108.46C287.396 108 287.181 107.35 287.181 106.51V100.99C287.181 100.15 287.396 99.5 287.826 99.04C288.256 98.58 288.876 98.35 289.686 98.35C290.496 98.35 291.116 98.58 291.546 99.04C291.976 99.5 292.191 100.15 292.191 100.99V106.51C292.191 107.35 291.976 108 291.546 108.46C291.116 108.92 290.496 109.15 289.686 109.15ZM289.686 107.65C290.256 107.65 290.541 107.305 290.541 106.615V100.885C290.541 100.195 290.256 99.85 289.686 99.85C289.116 99.85 288.831 100.195 288.831 100.885V106.615C288.831 107.305 289.116 107.65 289.686 107.65ZM289.836 96.07H291.636L290.031 97.795H288.786L289.836 96.07ZM293.306 98.5H295.751C296.601 98.5 297.221 98.7 297.611 99.1C298.001 99.49 298.196 100.095 298.196 100.915V101.56C298.196 102.65 297.836 103.34 297.116 103.63V103.66C297.516 103.78 297.796 104.025 297.956 104.395C298.126 104.765 298.211 105.26 298.211 105.88V107.725C298.211 108.025 298.221 108.27 298.241 108.46C298.261 108.64 298.311 108.82 298.391 109H296.711C296.651 108.83 296.611 108.67 296.591 108.52C296.571 108.37 296.561 108.1 296.561 107.71V105.79C296.561 105.31 296.481 104.975 296.321 104.785C296.171 104.595 295.906 104.5 295.526 104.5H294.956V109H293.306V98.5ZM295.556 103C295.886 103 296.131 102.915 296.291 102.745C296.461 102.575 296.546 102.29 296.546 101.89V101.08C296.546 100.7 296.476 100.425 296.336 100.255C296.206 100.085 295.996 100 295.706 100H294.956V103H295.556ZM299.356 98.5H301.006V109H299.356V98.5ZM304.567 109.15C303.777 109.15 303.172 108.925 302.752 108.475C302.342 108.025 302.137 107.39 302.137 106.57V100.93C302.137 100.11 302.342 99.475 302.752 99.025C303.172 98.575 303.777 98.35 304.567 98.35C305.357 98.35 305.957 98.575 306.367 99.025C306.787 99.475 306.997 100.11 306.997 100.93V102.04H305.437V100.825C305.437 100.175 305.162 99.85 304.612 99.85C304.062 99.85 303.787 100.175 303.787 100.825V106.69C303.787 107.33 304.062 107.65 304.612 107.65C305.162 107.65 305.437 107.33 305.437 106.69V105.085H306.997V106.57C306.997 107.39 306.787 108.025 306.367 108.475C305.957 108.925 305.357 109.15 304.567 109.15ZM310.398 109.15C309.588 109.15 308.968 108.92 308.538 108.46C308.108 108 307.893 107.35 307.893 106.51V100.99C307.893 100.15 308.108 99.5 308.538 99.04C308.968 98.58 309.588 98.35 310.398 98.35C311.208 98.35 311.828 98.58 312.258 99.04C312.688 99.5 312.903 100.15 312.903 100.99V106.51C312.903 107.35 312.688 108 312.258 108.46C311.828 108.92 311.208 109.15 310.398 109.15ZM310.398 107.65C310.968 107.65 311.253 107.305 311.253 106.615V100.885C311.253 100.195 310.968 99.85 310.398 99.85C309.828 99.85 309.543 100.195 309.543 100.885V106.615C309.543 107.305 309.828 107.65 310.398 107.65ZM316.422 98.5H318.942C319.762 98.5 320.377 98.72 320.787 99.16C321.197 99.6 321.402 100.245 321.402 101.095V106.405C321.402 107.255 321.197 107.9 320.787 108.34C320.377 108.78 319.762 109 318.942 109H316.422V98.5ZM318.912 107.5C319.182 107.5 319.387 107.42 319.527 107.26C319.677 107.1 319.752 106.84 319.752 106.48V101.02C319.752 100.66 319.677 100.4 319.527 100.24C319.387 100.08 319.182 100 318.912 100H318.072V107.5H318.912ZM324.9 109.15C324.09 109.15 323.47 108.92 323.04 108.46C322.61 108 322.395 107.35 322.395 106.51V100.99C322.395 100.15 322.61 99.5 323.04 99.04C323.47 98.58 324.09 98.35 324.9 98.35C325.71 98.35 326.33 98.58 326.76 99.04C327.19 99.5 327.405 100.15 327.405 100.99V106.51C327.405 107.35 327.19 108 326.76 108.46C326.33 108.92 325.71 109.15 324.9 109.15ZM324.9 107.65C325.47 107.65 325.755 107.305 325.755 106.615V100.885C325.755 100.195 325.47 99.85 324.9 99.85C324.33 99.85 324.045 100.195 324.045 100.885V106.615C324.045 107.305 324.33 107.65 324.9 107.65ZM330.924 98.5H333.279L334.329 106.015H334.359L335.409 98.5H337.764V109H336.204V101.05H336.174L334.974 109H333.594L332.394 101.05H332.364V109H330.924V98.5ZM341.395 109.15C340.595 109.15 339.985 108.925 339.565 108.475C339.145 108.015 338.935 107.36 338.935 106.51V98.5H340.585V106.63C340.585 106.99 340.655 107.25 340.795 107.41C340.945 107.57 341.155 107.65 341.425 107.65C341.695 107.65 341.9 107.57 342.04 107.41C342.19 107.25 342.265 106.99 342.265 106.63V98.5H343.855V106.51C343.855 107.36 343.645 108.015 343.225 108.475C342.805 108.925 342.195 109.15 341.395 109.15ZM345.03 98.5H347.1L348.705 104.785H348.735V98.5H350.205V109H348.51L346.53 101.335H346.5V109H345.03V98.5ZM351.431 98.5H353.081V109H351.431V98.5ZM356.642 109.15C355.852 109.15 355.247 108.925 354.827 108.475C354.417 108.025 354.212 107.39 354.212 106.57V100.93C354.212 100.11 354.417 99.475 354.827 99.025C355.247 98.575 355.852 98.35 356.642 98.35C357.432 98.35 358.032 98.575 358.442 99.025C358.862 99.475 359.072 100.11 359.072 100.93V102.04H357.512V100.825C357.512 100.175 357.237 99.85 356.687 99.85C356.137 99.85 355.862 100.175 355.862 100.825V106.69C355.862 107.33 356.137 107.65 356.687 107.65C357.237 107.65 357.512 107.33 357.512 106.69V105.085H359.072V106.57C359.072 107.39 358.862 108.025 358.442 108.475C358.032 108.925 357.432 109.15 356.642 109.15ZM360.059 98.5H361.709V109H360.059V98.5ZM361.034 96.07H362.834L361.229 97.795H359.984L361.034 96.07ZM362.945 98.5H365.375C366.195 98.5 366.81 98.72 367.22 99.16C367.63 99.6 367.835 100.245 367.835 101.095V102.13C367.835 102.98 367.63 103.625 367.22 104.065C366.81 104.505 366.195 104.725 365.375 104.725H364.595V109H362.945V98.5ZM365.375 103.225C365.645 103.225 365.845 103.15 365.975 103C366.115 102.85 366.185 102.595 366.185 102.235V100.99C366.185 100.63 366.115 100.375 365.975 100.225C365.845 100.075 365.645 100 365.375 100H364.595V103.225H365.375ZM368.731 98.5H370.381V109H368.731V98.5ZM374.002 109.15C373.192 109.15 372.572 108.92 372.142 108.46C371.712 108 371.497 107.35 371.497 106.51V100.99C371.497 100.15 371.712 99.5 372.142 99.04C372.572 98.58 373.192 98.35 374.002 98.35C374.812 98.35 375.432 98.58 375.862 99.04C376.292 99.5 376.507 100.15 376.507 100.99V106.51C376.507 107.35 376.292 108 375.862 108.46C375.432 108.92 374.812 109.15 374.002 109.15ZM374.002 107.65C374.572 107.65 374.857 107.305 374.857 106.615V100.885C374.857 100.195 374.572 99.85 374.002 99.85C373.432 99.85 373.147 100.195 373.147 100.885V106.615C373.147 107.305 373.432 107.65 374.002 107.65ZM380.025 98.5H382.545C383.365 98.5 383.98 98.72 384.39 99.16C384.8 99.6 385.005 100.245 385.005 101.095V106.405C385.005 107.255 384.8 107.9 384.39 108.34C383.98 108.78 383.365 109 382.545 109H380.025V98.5ZM382.515 107.5C382.785 107.5 382.99 107.42 383.13 107.26C383.28 107.1 383.355 106.84 383.355 106.48V101.02C383.355 100.66 383.28 100.4 383.13 100.24C382.99 100.08 382.785 100 382.515 100H381.675V107.5H382.515ZM386.119 98.5H390.619V100H387.769V102.775H390.034V104.275H387.769V107.5H390.619V109H386.119V98.5ZM393.97 98.5H396.49C397.31 98.5 397.925 98.72 398.335 99.16C398.745 99.6 398.95 100.245 398.95 101.095V106.405C398.95 107.255 398.745 107.9 398.335 108.34C397.925 108.78 397.31 109 396.49 109H393.97V98.5ZM396.46 107.5C396.73 107.5 396.935 107.42 397.075 107.26C397.225 107.1 397.3 106.84 397.3 106.48V101.02C397.3 100.66 397.225 100.4 397.075 100.24C396.935 100.08 396.73 100 396.46 100H395.62V107.5H396.46ZM400.064 98.5H401.714V109H400.064V98.5ZM404.225 98.5H406.46L408.17 109H406.52L406.22 106.915V106.945H404.345L404.045 109H402.515L404.225 98.5ZM406.025 105.52L405.29 100.33H405.26L404.54 105.52H406.025ZM408.97 98.5H411.325L412.375 106.015H412.405L413.455 98.5H415.81V109H414.25V101.05H414.22L413.02 109H411.64L410.44 101.05H410.41V109H408.97V98.5ZM418.317 98.5H420.552L422.262 109H420.612L420.312 106.915V106.945H418.437L418.137 109H416.607L418.317 98.5ZM420.117 105.52L419.382 100.33H419.352L418.632 105.52H420.117ZM423.062 98.5H425.132L426.737 104.785H426.767V98.5H428.237V109H426.542L424.562 101.335H424.532V109H423.062V98.5ZM430.754 100H429.029V98.5H434.129V100H432.404V109H430.754V100ZM434.928 98.5H436.578V109H434.928V98.5ZM437.813 98.5H439.883L441.488 104.785H441.518V98.5H442.988V109H441.293L439.313 101.335H439.283V109H437.813V98.5ZM445.49 98.5H447.725L449.435 109H447.785L447.485 106.915V106.945H445.61L445.31 109H443.78L445.49 98.5ZM447.29 105.52L446.555 100.33H446.525L445.805 105.52H447.29ZM231.94 127.15C231.15 127.15 230.545 126.925 230.125 126.475C229.715 126.025 229.51 125.39 229.51 124.57V118.93C229.51 118.11 229.715 117.475 230.125 117.025C230.545 116.575 231.15 116.35 231.94 116.35C232.73 116.35 233.33 116.575 233.74 117.025C234.16 117.475 234.37 118.11 234.37 118.93V120.04H232.81V118.825C232.81 118.175 232.535 117.85 231.985 117.85C231.435 117.85 231.16 118.175 231.16 118.825V124.69C231.16 125.33 231.435 125.65 231.985 125.65C232.535 125.65 232.81 125.33 232.81 124.69V123.085H234.37V124.57C234.37 125.39 234.16 126.025 233.74 126.475C233.33 126.925 232.73 127.15 231.94 127.15ZM237.771 127.15C236.961 127.15 236.341 126.92 235.911 126.46C235.481 126 235.266 125.35 235.266 124.51V118.99C235.266 118.15 235.481 117.5 235.911 117.04C236.341 116.58 236.961 116.35 237.771 116.35C238.581 116.35 239.201 116.58 239.631 117.04C240.061 117.5 240.276 118.15 240.276 118.99V124.51C240.276 125.35 240.061 126 239.631 126.46C239.201 126.92 238.581 127.15 237.771 127.15ZM237.771 125.65C238.341 125.65 238.626 125.305 238.626 124.615V118.885C238.626 118.195 238.341 117.85 237.771 117.85C237.201 117.85 236.916 118.195 236.916 118.885V124.615C236.916 125.305 237.201 125.65 237.771 125.65ZM241.392 116.5H243.462L245.067 122.785H245.097V116.5H246.567V127H244.872L242.892 119.335H242.862V127H241.392V116.5ZM248.184 127.06C247.884 127.06 247.629 127.04 247.419 127V125.5C247.579 125.54 247.759 125.56 247.959 125.56C248.289 125.56 248.534 125.48 248.694 125.32C248.854 125.15 248.934 124.895 248.934 124.555V116.5H250.584V124.51C250.584 125.37 250.384 126.01 249.984 126.43C249.594 126.85 248.994 127.06 248.184 127.06ZM254.163 127.15C253.363 127.15 252.753 126.925 252.333 126.475C251.913 126.015 251.703 125.36 251.703 124.51V116.5H253.353V124.63C253.353 124.99 253.423 125.25 253.563 125.41C253.713 125.57 253.923 125.65 254.193 125.65C254.463 125.65 254.668 125.57 254.808 125.41C254.958 125.25 255.033 124.99 255.033 124.63V116.5H256.623V124.51C256.623 125.36 256.413 126.015 255.993 126.475C255.573 126.925 254.963 127.15 254.163 127.15ZM257.799 116.5H259.869L261.474 122.785H261.504V116.5H262.974V127H261.279L259.299 119.335H259.269V127H257.799V116.5ZM265.49 118H263.765V116.5H268.865V118H267.14V127H265.49V118ZM271.99 127.15C271.18 127.15 270.56 126.92 270.13 126.46C269.7 126 269.485 125.35 269.485 124.51V118.99C269.485 118.15 269.7 117.5 270.13 117.04C270.56 116.58 271.18 116.35 271.99 116.35C272.8 116.35 273.42 116.58 273.85 117.04C274.28 117.5 274.495 118.15 274.495 118.99V124.51C274.495 125.35 274.28 126 273.85 126.46C273.42 126.92 272.8 127.15 271.99 127.15ZM271.99 125.65C272.56 125.65 272.845 125.305 272.845 124.615V118.885C272.845 118.195 272.56 117.85 271.99 117.85C271.42 117.85 271.135 118.195 271.135 118.885V124.615C271.135 125.305 271.42 125.65 271.99 125.65ZM278.013 116.5H280.368L281.418 124.015H281.448L282.498 116.5H284.853V127H283.293V119.05H283.263L282.063 127H280.683L279.483 119.05H279.453V127H278.013V116.5ZM288.47 127.15C287.66 127.15 287.04 126.92 286.61 126.46C286.18 126 285.965 125.35 285.965 124.51V118.99C285.965 118.15 286.18 117.5 286.61 117.04C287.04 116.58 287.66 116.35 288.47 116.35C289.28 116.35 289.9 116.58 290.33 117.04C290.76 117.5 290.975 118.15 290.975 118.99V124.51C290.975 125.35 290.76 126 290.33 126.46C289.9 126.92 289.28 127.15 288.47 127.15ZM288.47 125.65C289.04 125.65 289.325 125.305 289.325 124.615V118.885C289.325 118.195 289.04 117.85 288.47 117.85C287.9 117.85 287.615 118.195 287.615 118.885V124.615C287.615 125.305 287.9 125.65 288.47 125.65ZM292.091 116.5H294.611C295.431 116.5 296.046 116.72 296.456 117.16C296.866 117.6 297.071 118.245 297.071 119.095V124.405C297.071 125.255 296.866 125.9 296.456 126.34C296.046 126.78 295.431 127 294.611 127H292.091V116.5ZM294.581 125.5C294.851 125.5 295.056 125.42 295.196 125.26C295.346 125.1 295.421 124.84 295.421 124.48V119.02C295.421 118.66 295.346 118.4 295.196 118.24C295.056 118.08 294.851 118 294.581 118H293.741V125.5H294.581ZM298.184 116.5H302.684V118H299.834V120.775H302.099V122.275H299.834V125.5H302.684V127H298.184V116.5ZM303.634 116.5H306.079C306.929 116.5 307.549 116.7 307.939 117.1C308.329 117.49 308.524 118.095 308.524 118.915V119.56C308.524 120.65 308.164 121.34 307.444 121.63V121.66C307.844 121.78 308.124 122.025 308.284 122.395C308.454 122.765 308.539 123.26 308.539 123.88V125.725C308.539 126.025 308.549 126.27 308.569 126.46C308.589 126.64 308.639 126.82 308.719 127H307.039C306.979 126.83 306.939 126.67 306.919 126.52C306.899 126.37 306.889 126.1 306.889 125.71V123.79C306.889 123.31 306.809 122.975 306.649 122.785C306.499 122.595 306.234 122.5 305.854 122.5H305.284V127H303.634V116.5ZM305.884 121C306.214 121 306.459 120.915 306.619 120.745C306.789 120.575 306.874 120.29 306.874 119.89V119.08C306.874 118.7 306.804 118.425 306.664 118.255C306.534 118.085 306.324 118 306.034 118H305.284V121H305.884ZM309.683 116.5H311.753L313.358 122.785H313.388V116.5H314.858V127H313.163L311.183 119.335H311.153V127H309.683V116.5ZM318.47 127.15C317.66 127.15 317.04 126.92 316.61 126.46C316.18 126 315.965 125.35 315.965 124.51V118.99C315.965 118.15 316.18 117.5 316.61 117.04C317.04 116.58 317.66 116.35 318.47 116.35C319.28 116.35 319.9 116.58 320.33 117.04C320.76 117.5 320.975 118.15 320.975 118.99V124.51C320.975 125.35 320.76 126 320.33 126.46C319.9 126.92 319.28 127.15 318.47 127.15ZM318.47 125.65C319.04 125.65 319.325 125.305 319.325 124.615V118.885C319.325 118.195 319.04 117.85 318.47 117.85C317.9 117.85 317.615 118.195 317.615 118.885V124.615C317.615 125.305 317.9 125.65 318.47 125.65ZM324.493 116.5H327.013C327.833 116.5 328.448 116.72 328.858 117.16C329.268 117.6 329.473 118.245 329.473 119.095V124.405C329.473 125.255 329.268 125.9 328.858 126.34C328.448 126.78 327.833 127 327.013 127H324.493V116.5ZM326.983 125.5C327.253 125.5 327.458 125.42 327.598 125.26C327.748 125.1 327.823 124.84 327.823 124.48V119.02C327.823 118.66 327.748 118.4 327.598 118.24C327.458 118.08 327.253 118 326.983 118H326.143V125.5H326.983ZM331.832 116.5H334.067L335.777 127H334.127L333.827 124.915V124.945H331.952L331.652 127H330.122L331.832 116.5ZM333.632 123.52L332.897 118.33H332.867L332.147 123.52H333.632ZM338.98 116.5H341.41C342.23 116.5 342.845 116.72 343.255 117.16C343.665 117.6 343.87 118.245 343.87 119.095V120.13C343.87 120.98 343.665 121.625 343.255 122.065C342.845 122.505 342.23 122.725 341.41 122.725H340.63V127H338.98V116.5ZM341.41 121.225C341.68 121.225 341.88 121.15 342.01 121C342.15 120.85 342.22 120.595 342.22 120.235V118.99C342.22 118.63 342.15 118.375 342.01 118.225C341.88 118.075 341.68 118 341.41 118H340.63V121.225H341.41ZM345.514 116.5H347.749L349.459 127H347.809L347.509 124.915V124.945H345.634L345.334 127H343.804L345.514 116.5ZM347.314 123.52L346.579 118.33H346.549L345.829 123.52H347.314ZM350.26 116.5H352.615L353.665 124.015H353.695L354.745 116.5H357.1V127H355.54V119.05H355.51L354.31 127H352.93L351.73 119.05H351.7V127H350.26V116.5ZM358.331 116.5H360.761C361.581 116.5 362.196 116.72 362.606 117.16C363.016 117.6 363.221 118.245 363.221 119.095V120.13C363.221 120.98 363.016 121.625 362.606 122.065C362.196 122.505 361.581 122.725 360.761 122.725H359.981V127H358.331V116.5ZM360.761 121.225C361.031 121.225 361.231 121.15 361.361 121C361.501 120.85 361.571 120.595 361.571 120.235V118.99C361.571 118.63 361.501 118.375 361.361 118.225C361.231 118.075 361.031 118 360.761 118H359.981V121.225H360.761ZM366.517 127.15C365.717 127.15 365.107 126.925 364.687 126.475C364.267 126.015 364.057 125.36 364.057 124.51V116.5H365.707V124.63C365.707 124.99 365.777 125.25 365.917 125.41C366.067 125.57 366.277 125.65 366.547 125.65C366.817 125.65 367.022 125.57 367.162 125.41C367.312 125.25 367.387 124.99 367.387 124.63V116.5H368.977V124.51C368.977 125.36 368.767 126.015 368.347 126.475C367.927 126.925 367.317 127.15 366.517 127.15ZM370.152 116.5H371.802V125.5H374.517V127H370.152V116.5ZM375.308 116.5H376.958V120.775H378.728V116.5H380.378V127H378.728V122.275H376.958V127H375.308V116.5ZM382.882 116.5H385.117L386.827 127H385.177L384.877 124.915V124.945H383.002L382.702 127H381.172L382.882 116.5ZM384.682 123.52L383.947 118.33H383.917L383.197 123.52H384.682ZM231.94 145.15C231.15 145.15 230.545 144.925 230.125 144.475C229.715 144.025 229.51 143.39 229.51 142.57V136.93C229.51 136.11 229.715 135.475 230.125 135.025C230.545 134.575 231.15 134.35 231.94 134.35C232.73 134.35 233.33 134.575 233.74 135.025C234.16 135.475 234.37 136.11 234.37 136.93V138.04H232.81V136.825C232.81 136.175 232.535 135.85 231.985 135.85C231.435 135.85 231.16 136.175 231.16 136.825V142.69C231.16 143.33 231.435 143.65 231.985 143.65C232.535 143.65 232.81 143.33 232.81 142.69V141.085H234.37V142.57C234.37 143.39 234.16 144.025 233.74 144.475C233.33 144.925 232.73 145.15 231.94 145.15ZM235.357 134.5H237.007V145H235.357V134.5ZM238.243 134.5H240.763C241.583 134.5 242.198 134.72 242.608 135.16C243.018 135.6 243.223 136.245 243.223 137.095V142.405C243.223 143.255 243.018 143.9 242.608 144.34C242.198 144.78 241.583 145 240.763 145H238.243V134.5ZM240.733 143.5C241.003 143.5 241.208 143.42 241.348 143.26C241.498 143.1 241.573 142.84 241.573 142.48V137.02C241.573 136.66 241.498 136.4 241.348 136.24C241.208 136.08 241.003 136 240.733 136H239.893V143.5H240.733ZM245.582 134.5H247.817L249.527 145H247.877L247.577 142.915V142.945H245.702L245.402 145H243.872L245.582 134.5ZM247.382 141.52L246.647 136.33H246.617L245.897 141.52H247.382ZM250.328 134.5H252.848C253.668 134.5 254.283 134.72 254.693 135.16C255.103 135.6 255.308 136.245 255.308 137.095V142.405C255.308 143.255 255.103 143.9 254.693 144.34C254.283 144.78 253.668 145 252.848 145H250.328V134.5ZM252.818 143.5C253.088 143.5 253.293 143.42 253.433 143.26C253.583 143.1 253.658 142.84 253.658 142.48V137.02C253.658 136.66 253.583 136.4 253.433 136.24C253.293 136.08 253.088 136 252.818 136H251.978V143.5H252.818ZM256.422 134.5H260.922V136H258.072V138.775H260.337V140.275H258.072V143.5H260.922V145H256.422V134.5ZM264.273 134.5H265.923V138.775H267.693V134.5H269.343V145H267.693V140.275H265.923V145H264.273V134.5ZM270.572 134.5H272.222V145H270.572V134.5ZM275.603 145.15C274.803 145.15 274.198 144.925 273.788 144.475C273.378 144.015 273.173 143.36 273.173 142.51V141.91H274.733V142.63C274.733 143.31 275.018 143.65 275.588 143.65C275.868 143.65 276.078 143.57 276.218 143.41C276.368 143.24 276.443 142.97 276.443 142.6C276.443 142.16 276.343 141.775 276.143 141.445C275.943 141.105 275.573 140.7 275.033 140.23C274.353 139.63 273.878 139.09 273.608 138.61C273.338 138.12 273.203 137.57 273.203 136.96C273.203 136.13 273.413 135.49 273.833 135.04C274.253 134.58 274.863 134.35 275.663 134.35C276.453 134.35 277.048 134.58 277.448 135.04C277.858 135.49 278.063 136.14 278.063 136.99V137.425H276.503V136.885C276.503 136.525 276.433 136.265 276.293 136.105C276.153 135.935 275.948 135.85 275.678 135.85C275.128 135.85 274.853 136.185 274.853 136.855C274.853 137.235 274.953 137.59 275.153 137.92C275.363 138.25 275.738 138.65 276.278 139.12C276.968 139.72 277.443 140.265 277.703 140.755C277.963 141.245 278.093 141.82 278.093 142.48C278.093 143.34 277.878 144 277.448 144.46C277.028 144.92 276.413 145.15 275.603 145.15ZM280.329 136H278.604V134.5H283.704V136H281.979V145H280.329V136ZM286.829 145.15C286.019 145.15 285.399 144.92 284.969 144.46C284.539 144 284.324 143.35 284.324 142.51V136.99C284.324 136.15 284.539 135.5 284.969 135.04C285.399 134.58 286.019 134.35 286.829 134.35C287.639 134.35 288.259 134.58 288.689 135.04C289.119 135.5 289.334 136.15 289.334 136.99V142.51C289.334 143.35 289.119 144 288.689 144.46C288.259 144.92 287.639 145.15 286.829 145.15ZM286.829 143.65C287.399 143.65 287.684 143.305 287.684 142.615V136.885C287.684 136.195 287.399 135.85 286.829 135.85C286.259 135.85 285.974 136.195 285.974 136.885V142.615C285.974 143.305 286.259 143.65 286.829 143.65ZM286.979 132.07H288.779L287.174 133.795H285.929L286.979 132.07ZM290.45 134.5H292.895C293.745 134.5 294.365 134.7 294.755 135.1C295.145 135.49 295.34 136.095 295.34 136.915V137.56C295.34 138.65 294.98 139.34 294.26 139.63V139.66C294.66 139.78 294.94 140.025 295.1 140.395C295.27 140.765 295.355 141.26 295.355 141.88V143.725C295.355 144.025 295.365 144.27 295.385 144.46C295.405 144.64 295.455 144.82 295.535 145H293.855C293.795 144.83 293.755 144.67 293.735 144.52C293.715 144.37 293.705 144.1 293.705 143.71V141.79C293.705 141.31 293.625 140.975 293.465 140.785C293.315 140.595 293.05 140.5 292.67 140.5H292.1V145H290.45V134.5ZM292.7 139C293.03 139 293.275 138.915 293.435 138.745C293.605 138.575 293.69 138.29 293.69 137.89V137.08C293.69 136.7 293.62 136.425 293.48 136.255C293.35 136.085 293.14 136 292.85 136H292.1V139H292.7ZM296.5 134.5H298.15V145H296.5V134.5ZM301.711 145.15C300.921 145.15 300.316 144.925 299.896 144.475C299.486 144.025 299.281 143.39 299.281 142.57V136.93C299.281 136.11 299.486 135.475 299.896 135.025C300.316 134.575 300.921 134.35 301.711 134.35C302.501 134.35 303.101 134.575 303.511 135.025C303.931 135.475 304.141 136.11 304.141 136.93V138.04H302.581V136.825C302.581 136.175 302.306 135.85 301.756 135.85C301.206 135.85 300.931 136.175 300.931 136.825V142.69C300.931 143.33 301.206 143.65 301.756 143.65C302.306 143.65 302.581 143.33 302.581 142.69V141.085H304.141V142.57C304.141 143.39 303.931 144.025 303.511 144.475C303.101 144.925 302.501 145.15 301.711 145.15ZM306.403 134.5H308.638L310.348 145H308.698L308.398 142.915V142.945H306.523L306.223 145H304.693L306.403 134.5ZM308.203 141.52L307.468 136.33H307.438L306.718 141.52H308.203ZM313.551 134.5H316.071C316.891 134.5 317.506 134.72 317.916 135.16C318.326 135.6 318.531 136.245 318.531 137.095V142.405C318.531 143.255 318.326 143.9 317.916 144.34C317.506 144.78 316.891 145 316.071 145H313.551V134.5ZM316.041 143.5C316.311 143.5 316.516 143.42 316.656 143.26C316.806 143.1 316.881 142.84 316.881 142.48V137.02C316.881 136.66 316.806 136.4 316.656 136.24C316.516 136.08 316.311 136 316.041 136H315.201V143.5H316.041ZM319.644 134.5H324.144V136H321.294V138.775H323.559V140.275H321.294V143.5H324.144V145H319.644V134.5ZM329.881 145.15C329.071 145.15 328.451 144.92 328.021 144.46C327.591 144 327.376 143.35 327.376 142.51V136.99C327.376 136.15 327.591 135.5 328.021 135.04C328.451 134.58 329.071 134.35 329.881 134.35C330.691 134.35 331.311 134.58 331.741 135.04C332.171 135.5 332.386 136.15 332.386 136.99V142.51C332.386 143.35 332.171 144 331.741 144.46C331.311 144.92 330.691 145.15 329.881 145.15ZM329.881 143.65C330.451 143.65 330.736 143.305 330.736 142.615V136.885C330.736 136.195 330.451 135.85 329.881 135.85C329.311 135.85 329.026 136.195 329.026 136.885V142.615C329.026 143.305 329.311 143.65 329.881 143.65ZM335.902 145.15C335.102 145.15 334.492 144.925 334.072 144.475C333.652 144.015 333.442 143.36 333.442 142.51V134.5H335.092V142.63C335.092 142.99 335.162 143.25 335.302 143.41C335.452 143.57 335.662 143.65 335.932 143.65C336.202 143.65 336.407 143.57 336.547 143.41C336.697 143.25 336.772 142.99 336.772 142.63V134.5H338.362V142.51C338.362 143.36 338.152 144.015 337.732 144.475C337.312 144.925 336.702 145.15 335.902 145.15ZM339.537 134.5H341.982C342.832 134.5 343.452 134.7 343.842 135.1C344.232 135.49 344.427 136.095 344.427 136.915V137.56C344.427 138.65 344.067 139.34 343.347 139.63V139.66C343.747 139.78 344.027 140.025 344.187 140.395C344.357 140.765 344.442 141.26 344.442 141.88V143.725C344.442 144.025 344.452 144.27 344.472 144.46C344.492 144.64 344.542 144.82 344.622 145H342.942C342.882 144.83 342.842 144.67 342.822 144.52C342.802 144.37 342.792 144.1 342.792 143.71V141.79C342.792 141.31 342.712 140.975 342.552 140.785C342.402 140.595 342.137 140.5 341.757 140.5H341.187V145H339.537V134.5ZM341.787 139C342.117 139 342.362 138.915 342.522 138.745C342.692 138.575 342.777 138.29 342.777 137.89V137.08C342.777 136.7 342.707 136.425 342.567 136.255C342.437 136.085 342.227 136 341.937 136H341.187V139H341.787ZM347.972 145.15C347.162 145.15 346.542 144.92 346.112 144.46C345.682 144 345.467 143.35 345.467 142.51V136.99C345.467 136.15 345.682 135.5 346.112 135.04C346.542 134.58 347.162 134.35 347.972 134.35C348.782 134.35 349.402 134.58 349.832 135.04C350.262 135.5 350.477 136.15 350.477 136.99V142.51C350.477 143.35 350.262 144 349.832 144.46C349.402 144.92 348.782 145.15 347.972 145.15ZM347.972 143.65C348.542 143.65 348.827 143.305 348.827 142.615V136.885C348.827 136.195 348.542 135.85 347.972 135.85C347.402 135.85 347.117 136.195 347.117 136.885V142.615C347.117 143.305 347.402 143.65 347.972 143.65ZM353.995 134.5H356.425C357.245 134.5 357.86 134.72 358.27 135.16C358.68 135.6 358.885 136.245 358.885 137.095V138.13C358.885 138.98 358.68 139.625 358.27 140.065C357.86 140.505 357.245 140.725 356.425 140.725H355.645V145H353.995V134.5ZM356.425 139.225C356.695 139.225 356.895 139.15 357.025 139C357.165 138.85 357.235 138.595 357.235 138.235V136.99C357.235 136.63 357.165 136.375 357.025 136.225C356.895 136.075 356.695 136 356.425 136H355.645V139.225H356.425ZM359.781 134.5H362.226C363.076 134.5 363.696 134.7 364.086 135.1C364.476 135.49 364.671 136.095 364.671 136.915V137.56C364.671 138.65 364.311 139.34 363.591 139.63V139.66C363.991 139.78 364.271 140.025 364.431 140.395C364.601 140.765 364.686 141.26 364.686 141.88V143.725C364.686 144.025 364.696 144.27 364.716 144.46C364.736 144.64 364.786 144.82 364.866 145H363.186C363.126 144.83 363.086 144.67 363.066 144.52C363.046 144.37 363.036 144.1 363.036 143.71V141.79C363.036 141.31 362.956 140.975 362.796 140.785C362.646 140.595 362.381 140.5 362.001 140.5H361.431V145H359.781V134.5ZM362.031 139C362.361 139 362.606 138.915 362.766 138.745C362.936 138.575 363.021 138.29 363.021 137.89V137.08C363.021 136.7 362.951 136.425 362.811 136.255C362.681 136.085 362.471 136 362.181 136H361.431V139H362.031ZM365.831 134.5H370.331V136H367.481V138.775H369.746V140.275H367.481V143.5H370.331V145H365.831V134.5ZM372.57 136H370.845V134.5H375.945V136H374.22V145H372.57V136ZM379.07 145.15C378.26 145.15 377.64 144.92 377.21 144.46C376.78 144 376.565 143.35 376.565 142.51V136.99C376.565 136.15 376.78 135.5 377.21 135.04C377.64 134.58 378.26 134.35 379.07 134.35C379.88 134.35 380.5 134.58 380.93 135.04C381.36 135.5 381.575 136.15 381.575 136.99V142.51C381.575 143.35 381.36 144 380.93 144.46C380.5 144.92 379.88 145.15 379.07 145.15ZM379.07 143.65C379.64 143.65 379.925 143.305 379.925 142.615V136.885C379.925 136.195 379.64 135.85 379.07 135.85C378.5 135.85 378.215 136.195 378.215 136.885V142.615C378.215 143.305 378.5 143.65 379.07 143.65ZM231.76 163.15C230.96 163.15 230.355 162.925 229.945 162.475C229.535 162.015 229.33 161.36 229.33 160.51V159.91H230.89V160.63C230.89 161.31 231.175 161.65 231.745 161.65C232.025 161.65 232.235 161.57 232.375 161.41C232.525 161.24 232.6 160.97 232.6 160.6C232.6 160.16 232.5 159.775 232.3 159.445C232.1 159.105 231.73 158.7 231.19 158.23C230.51 157.63 230.035 157.09 229.765 156.61C229.495 156.12 229.36 155.57 229.36 154.96C229.36 154.13 229.57 153.49 229.99 153.04C230.41 152.58 231.02 152.35 231.82 152.35C232.61 152.35 233.205 152.58 233.605 153.04C234.015 153.49 234.22 154.14 234.22 154.99V155.425H232.66V154.885C232.66 154.525 232.59 154.265 232.45 154.105C232.31 153.935 232.105 153.85 231.835 153.85C231.285 153.85 231.01 154.185 231.01 154.855C231.01 155.235 231.11 155.59 231.31 155.92C231.52 156.25 231.895 156.65 232.435 157.12C233.125 157.72 233.6 158.265 233.86 158.755C234.12 159.245 234.25 159.82 234.25 160.48C234.25 161.34 234.035 162 233.605 162.46C233.185 162.92 232.57 163.15 231.76 163.15ZM236.427 152.5H238.662L240.372 163H238.722L238.422 160.915V160.945H236.547L236.247 163H234.717L236.427 152.5ZM238.227 159.52L237.492 154.33H237.462L236.742 159.52H238.227ZM241.173 152.5H243.243L244.848 158.785H244.878V152.5H246.348V163H244.653L242.673 155.335H242.643V163H241.173V152.5ZM248.864 154H247.139V152.5H252.239V154H250.514V163H248.864V154ZM255.438 163.15C254.638 163.15 254.028 162.925 253.608 162.475C253.188 162.015 252.978 161.36 252.978 160.51V152.5H254.628V160.63C254.628 160.99 254.698 161.25 254.838 161.41C254.988 161.57 255.198 161.65 255.468 161.65C255.738 161.65 255.943 161.57 256.083 161.41C256.233 161.25 256.308 160.99 256.308 160.63V152.5H257.898V160.51C257.898 161.36 257.688 162.015 257.268 162.475C256.848 162.925 256.238 163.15 255.438 163.15ZM260.319 152.5H262.554L264.264 163H262.614L262.314 160.915V160.945H260.439L260.139 163H258.609L260.319 152.5ZM262.119 159.52L261.384 154.33H261.354L260.634 159.52H262.119ZM261.594 150.07H263.394L261.789 151.795H260.544L261.594 150.07ZM265.064 152.5H267.509C268.359 152.5 268.979 152.7 269.369 153.1C269.759 153.49 269.954 154.095 269.954 154.915V155.56C269.954 156.65 269.594 157.34 268.874 157.63V157.66C269.274 157.78 269.554 158.025 269.714 158.395C269.884 158.765 269.969 159.26 269.969 159.88V161.725C269.969 162.025 269.979 162.27 269.999 162.46C270.019 162.64 270.069 162.82 270.149 163H268.469C268.409 162.83 268.369 162.67 268.349 162.52C268.329 162.37 268.319 162.1 268.319 161.71V159.79C268.319 159.31 268.239 158.975 268.079 158.785C267.929 158.595 267.664 158.5 267.284 158.5H266.714V163H265.064V152.5ZM267.314 157C267.644 157 267.889 156.915 268.049 156.745C268.219 156.575 268.304 156.29 268.304 155.89V155.08C268.304 154.7 268.234 154.425 268.094 154.255C267.964 154.085 267.754 154 267.464 154H266.714V157H267.314ZM271.114 152.5H272.764V163H271.114V152.5ZM276.385 163.15C275.575 163.15 274.955 162.92 274.525 162.46C274.095 162 273.88 161.35 273.88 160.51V154.99C273.88 154.15 274.095 153.5 274.525 153.04C274.955 152.58 275.575 152.35 276.385 152.35C277.195 152.35 277.815 152.58 278.245 153.04C278.675 153.5 278.89 154.15 278.89 154.99V160.51C278.89 161.35 278.675 162 278.245 162.46C277.815 162.92 277.195 163.15 276.385 163.15ZM276.385 161.65C276.955 161.65 277.24 161.305 277.24 160.615V154.885C277.24 154.195 276.955 153.85 276.385 153.85C275.815 153.85 275.53 154.195 275.53 154.885V160.615C275.53 161.305 275.815 161.65 276.385 161.65ZM282.408 152.5H284.928C285.748 152.5 286.363 152.72 286.773 153.16C287.183 153.6 287.388 154.245 287.388 155.095V160.405C287.388 161.255 287.183 161.9 286.773 162.34C286.363 162.78 285.748 163 284.928 163H282.408V152.5ZM284.898 161.5C285.168 161.5 285.373 161.42 285.513 161.26C285.663 161.1 285.738 160.84 285.738 160.48V155.02C285.738 154.66 285.663 154.4 285.513 154.24C285.373 154.08 285.168 154 284.898 154H284.058V161.5H284.898ZM290.887 163.15C290.077 163.15 289.457 162.92 289.027 162.46C288.597 162 288.382 161.35 288.382 160.51V154.99C288.382 154.15 288.597 153.5 289.027 153.04C289.457 152.58 290.077 152.35 290.887 152.35C291.697 152.35 292.317 152.58 292.747 153.04C293.177 153.5 293.392 154.15 293.392 154.99V160.51C293.392 161.35 293.177 162 292.747 162.46C292.317 162.92 291.697 163.15 290.887 163.15ZM290.887 161.65C291.457 161.65 291.742 161.305 291.742 160.615V154.885C291.742 154.195 291.457 153.85 290.887 153.85C290.317 153.85 290.032 154.195 290.032 154.885V160.615C290.032 161.305 290.317 161.65 290.887 161.65ZM296.91 152.5H299.4C300.25 152.5 300.87 152.7 301.26 153.1C301.65 153.49 301.845 154.095 301.845 154.915V155.335C301.845 155.875 301.755 156.315 301.575 156.655C301.405 156.995 301.14 157.24 300.78 157.39V157.42C301.6 157.7 302.01 158.43 302.01 159.61V160.51C302.01 161.32 301.795 161.94 301.365 162.37C300.945 162.79 300.325 163 299.505 163H296.91V152.5ZM299.205 156.775C299.535 156.775 299.78 156.69 299.94 156.52C300.11 156.35 300.195 156.065 300.195 155.665V155.08C300.195 154.7 300.125 154.425 299.985 154.255C299.855 154.085 299.645 154 299.355 154H298.56V156.775H299.205ZM299.505 161.5C299.795 161.5 300.01 161.425 300.15 161.275C300.29 161.115 300.36 160.845 300.36 160.465V159.55C300.36 159.07 300.275 158.74 300.105 158.56C299.945 158.37 299.675 158.275 299.295 158.275H298.56V161.5H299.505ZM305.359 163.15C304.549 163.15 303.929 162.92 303.499 162.46C303.069 162 302.854 161.35 302.854 160.51V154.99C302.854 154.15 303.069 153.5 303.499 153.04C303.929 152.58 304.549 152.35 305.359 152.35C306.169 152.35 306.789 152.58 307.219 153.04C307.649 153.5 307.864 154.15 307.864 154.99V160.51C307.864 161.35 307.649 162 307.219 162.46C306.789 162.92 306.169 163.15 305.359 163.15ZM305.359 161.65C305.929 161.65 306.214 161.305 306.214 160.615V154.885C306.214 154.195 305.929 153.85 305.359 153.85C304.789 153.85 304.504 154.195 304.504 154.885V160.615C304.504 161.305 304.789 161.65 305.359 161.65ZM308.98 152.5H311.335L312.385 160.015H312.415L313.465 152.5H315.82V163H314.26V155.05H314.23L313.03 163H311.65L310.45 155.05H310.42V163H308.98V152.5ZM319.844 163.06C319.544 163.06 319.289 163.04 319.079 163V161.5C319.239 161.54 319.419 161.56 319.619 161.56C319.949 161.56 320.194 161.48 320.354 161.32C320.514 161.15 320.594 160.895 320.594 160.555V152.5H322.244V160.51C322.244 161.37 322.044 162.01 321.644 162.43C321.254 162.85 320.654 163.06 319.844 163.06ZM323.424 152.5H327.924V154H325.074V156.775H327.339V158.275H325.074V161.5H327.924V163H323.424V152.5ZM331.047 163.15C330.247 163.15 329.642 162.925 329.232 162.475C328.822 162.015 328.617 161.36 328.617 160.51V159.91H330.177V160.63C330.177 161.31 330.462 161.65 331.032 161.65C331.312 161.65 331.522 161.57 331.662 161.41C331.812 161.24 331.887 160.97 331.887 160.6C331.887 160.16 331.787 159.775 331.587 159.445C331.387 159.105 331.017 158.7 330.477 158.23C329.797 157.63 329.322 157.09 329.052 156.61C328.782 156.12 328.647 155.57 328.647 154.96C328.647 154.13 328.857 153.49 329.277 153.04C329.697 152.58 330.307 152.35 331.107 152.35C331.897 152.35 332.492 152.58 332.892 153.04C333.302 153.49 333.507 154.14 333.507 154.99V155.425H331.947V154.885C331.947 154.525 331.877 154.265 331.737 154.105C331.597 153.935 331.392 153.85 331.122 153.85C330.572 153.85 330.297 154.185 330.297 154.855C330.297 155.235 330.397 155.59 330.597 155.92C330.807 156.25 331.182 156.65 331.722 157.12C332.412 157.72 332.887 158.265 333.147 158.755C333.407 159.245 333.537 159.82 333.537 160.48C333.537 161.34 333.322 162 332.892 162.46C332.472 162.92 331.857 163.15 331.047 163.15ZM336.883 163.15C336.083 163.15 335.473 162.925 335.053 162.475C334.633 162.015 334.423 161.36 334.423 160.51V152.5H336.073V160.63C336.073 160.99 336.143 161.25 336.283 161.41C336.433 161.57 336.643 161.65 336.913 161.65C337.183 161.65 337.388 161.57 337.528 161.41C337.678 161.25 337.753 160.99 337.753 160.63V152.5H339.343V160.51C339.343 161.36 339.133 162.015 338.713 162.475C338.293 162.925 337.683 163.15 336.883 163.15ZM342.663 163.15C341.863 163.15 341.258 162.925 340.848 162.475C340.438 162.015 340.233 161.36 340.233 160.51V159.91H341.793V160.63C341.793 161.31 342.078 161.65 342.648 161.65C342.928 161.65 343.138 161.57 343.278 161.41C343.428 161.24 343.503 160.97 343.503 160.6C343.503 160.16 343.403 159.775 343.203 159.445C343.003 159.105 342.633 158.7 342.093 158.23C341.413 157.63 340.938 157.09 340.668 156.61C340.398 156.12 340.263 155.57 340.263 154.96C340.263 154.13 340.473 153.49 340.893 153.04C341.313 152.58 341.923 152.35 342.723 152.35C343.513 152.35 344.108 152.58 344.508 153.04C344.918 153.49 345.123 154.14 345.123 154.99V155.425H343.563V154.885C343.563 154.525 343.493 154.265 343.353 154.105C343.213 153.935 343.008 153.85 342.738 153.85C342.188 153.85 341.913 154.185 341.913 154.855C341.913 155.235 342.013 155.59 342.213 155.92C342.423 156.25 342.798 156.65 343.338 157.12C344.028 157.72 344.503 158.265 344.763 158.755C345.023 159.245 345.153 159.82 345.153 160.48C345.153 161.34 344.938 162 344.508 162.46C344.088 162.92 343.473 163.15 342.663 163.15ZM348.502 152.5H351.022C351.842 152.5 352.457 152.72 352.867 153.16C353.277 153.6 353.482 154.245 353.482 155.095V160.405C353.482 161.255 353.277 161.9 352.867 162.34C352.457 162.78 351.842 163 351.022 163H348.502V152.5ZM350.992 161.5C351.262 161.5 351.467 161.42 351.607 161.26C351.757 161.1 351.832 160.84 351.832 160.48V155.02C351.832 154.66 351.757 154.4 351.607 154.24C351.467 154.08 351.262 154 350.992 154H350.152V161.5H350.992ZM356.98 163.15C356.17 163.15 355.55 162.92 355.12 162.46C354.69 162 354.475 161.35 354.475 160.51V154.99C354.475 154.15 354.69 153.5 355.12 153.04C355.55 152.58 356.17 152.35 356.98 152.35C357.79 152.35 358.41 152.58 358.84 153.04C359.27 153.5 359.485 154.15 359.485 154.99V160.51C359.485 161.35 359.27 162 358.84 162.46C358.41 162.92 357.79 163.15 356.98 163.15ZM356.98 161.65C357.55 161.65 357.835 161.305 357.835 160.615V154.885C357.835 154.195 357.55 153.85 356.98 153.85C356.41 153.85 356.125 154.195 356.125 154.885V160.615C356.125 161.305 356.41 161.65 356.98 161.65ZM365.329 163.15C364.539 163.15 363.934 162.925 363.514 162.475C363.104 162.025 362.899 161.39 362.899 160.57V154.93C362.899 154.11 363.104 153.475 363.514 153.025C363.934 152.575 364.539 152.35 365.329 152.35C366.119 152.35 366.719 152.575 367.129 153.025C367.549 153.475 367.759 154.11 367.759 154.93V156.04H366.199V154.825C366.199 154.175 365.924 153.85 365.374 153.85C364.824 153.85 364.549 154.175 364.549 154.825V160.69C364.549 161.33 364.824 161.65 365.374 161.65C365.924 161.65 366.199 161.33 366.199 160.69V159.085H367.759V160.57C367.759 161.39 367.549 162.025 367.129 162.475C366.719 162.925 366.119 163.15 365.329 163.15ZM371.16 163.15C370.35 163.15 369.73 162.92 369.3 162.46C368.87 162 368.655 161.35 368.655 160.51V154.99C368.655 154.15 368.87 153.5 369.3 153.04C369.73 152.58 370.35 152.35 371.16 152.35C371.97 152.35 372.59 152.58 373.02 153.04C373.45 153.5 373.665 154.15 373.665 154.99V160.51C373.665 161.35 373.45 162 373.02 162.46C372.59 162.92 371.97 163.15 371.16 163.15ZM371.16 161.65C371.73 161.65 372.015 161.305 372.015 160.615V154.885C372.015 154.195 371.73 153.85 371.16 153.85C370.59 153.85 370.305 154.195 370.305 154.885V160.615C370.305 161.305 370.59 161.65 371.16 161.65ZM374.781 152.5H376.851L378.456 158.785H378.486V152.5H379.956V163H378.261L376.281 155.335H376.251V163H374.781V152.5ZM383.522 163.15C382.722 163.15 382.112 162.925 381.692 162.475C381.272 162.015 381.062 161.36 381.062 160.51V154.99C381.062 154.14 381.272 153.49 381.692 153.04C382.112 152.58 382.722 152.35 383.522 152.35C384.322 152.35 384.932 152.58 385.352 153.04C385.772 153.49 385.982 154.14 385.982 154.99V155.89H384.422V154.885C384.422 154.195 384.137 153.85 383.567 153.85C382.997 153.85 382.712 154.195 382.712 154.885V160.63C382.712 161.31 382.997 161.65 383.567 161.65C384.137 161.65 384.422 161.31 384.422 160.63V158.575H383.597V157.075H385.982V160.51C385.982 161.36 385.772 162.015 385.352 162.475C384.932 162.925 384.322 163.15 383.522 163.15ZM389.427 163.15C388.617 163.15 387.997 162.92 387.567 162.46C387.137 162 386.922 161.35 386.922 160.51V154.99C386.922 154.15 387.137 153.5 387.567 153.04C387.997 152.58 388.617 152.35 389.427 152.35C390.237 152.35 390.857 152.58 391.287 153.04C391.717 153.5 391.932 154.15 391.932 154.99V160.51C391.932 161.35 391.717 162 391.287 162.46C390.857 162.92 390.237 163.15 389.427 163.15ZM389.427 161.65C389.997 161.65 390.282 161.305 390.282 160.615V154.885C390.282 154.195 389.997 153.85 389.427 153.85C388.857 153.85 388.572 154.195 388.572 154.885V160.615C388.572 161.305 388.857 161.65 389.427 161.65ZM393.048 152.5H395.118L396.723 158.785H396.753V152.5H398.223V163H396.528L394.548 155.335H394.518V163H393.048V152.5ZM399.449 152.5H401.099V156.775H402.869V152.5H404.519V163H402.869V158.275H401.099V163H399.449V152.5ZM407.023 152.5H409.258L410.968 163H409.318L409.018 160.915V160.945H407.143L406.843 163H405.313L407.023 152.5ZM408.823 159.52L408.088 154.33H408.058L407.338 159.52H408.823ZM413.869 163.15C413.069 163.15 412.464 162.925 412.054 162.475C411.644 162.015 411.439 161.36 411.439 160.51V159.91H412.999V160.63C412.999 161.31 413.284 161.65 413.854 161.65C414.134 161.65 414.344 161.57 414.484 161.41C414.634 161.24 414.709 160.97 414.709 160.6C414.709 160.16 414.609 159.775 414.409 159.445C414.209 159.105 413.839 158.7 413.299 158.23C412.619 157.63 412.144 157.09 411.874 156.61C411.604 156.12 411.469 155.57 411.469 154.96C411.469 154.13 411.679 153.49 412.099 153.04C412.519 152.58 413.129 152.35 413.929 152.35C414.719 152.35 415.314 152.58 415.714 153.04C416.124 153.49 416.329 154.14 416.329 154.99V155.425H414.769V154.885C414.769 154.525 414.699 154.265 414.559 154.105C414.419 153.935 414.214 153.85 413.944 153.85C413.394 153.85 413.119 154.185 413.119 154.855C413.119 155.235 413.219 155.59 413.419 155.92C413.629 156.25 414.004 156.65 414.544 157.12C415.234 157.72 415.709 158.265 415.969 158.755C416.229 159.245 416.359 159.82 416.359 160.48C416.359 161.34 416.144 162 415.714 162.46C415.294 162.92 414.679 163.15 413.869 163.15Z" fill="black"/>
</g>
</svg>
